<svg class="main-svg" xmlns="http://www.w3.org/2000/svg" xmlns:xlink="http://www.w3.org/1999/xlink" width="1700" height="900" style="" viewBox="0 0 1700 900"><rect x="0" y="0" width="1700" height="900" style="fill: rgb(255, 255, 255); fill-opacity: 1;"/><defs id="defs-761d09"><g class="clips"><clipPath id="clip761d09xyplot" class="plotclip"><rect width="1348" height="687"/></clipPath><clipPath class="axesclip" id="clip761d09x"><rect x="88" y="0" width="1348" height="900"/></clipPath><clipPath class="axesclip" id="clip761d09y"><rect x="0" y="100" width="1700" height="687"/></clipPath><clipPath class="axesclip" id="clip761d09xy"><rect x="88" y="100" width="1348" height="687"/></clipPath></g><g class="gradients"/><g class="patterns"/></defs><g class="bglayer"/><g class="layer-below"><g class="imagelayer"/><g class="shapelayer"/></g><g class="cartesianlayer"><g class="subplot xy"><g class="layer-subplot"><g class="shapelayer"/><g class="imagelayer"/></g><g class="minor-gridlayer"><g class="x"/><g class="y"/></g><g class="gridlayer"><g class="x"><path class="xgrid crisp" transform="translate(123.47,0)" d="M0,100v687" style="stroke: rgb(235, 240, 248); stroke-opacity: 1; stroke-width: 1px;"/><path class="xgrid crisp" transform="translate(247.63,0)" d="M0,100v687" style="stroke: rgb(235, 240, 248); stroke-opacity: 1; stroke-width: 1px;"/><path class="xgrid crisp" transform="translate(371.79,0)" d="M0,100v687" style="stroke: rgb(235, 240, 248); stroke-opacity: 1; stroke-width: 1px;"/><path class="xgrid crisp" transform="translate(495.95,0)" d="M0,100v687" style="stroke: rgb(235, 240, 248); stroke-opacity: 1; stroke-width: 1px;"/><path class="xgrid crisp" transform="translate(620.11,0)" d="M0,100v687" style="stroke: rgb(235, 240, 248); stroke-opacity: 1; stroke-width: 1px;"/><path class="xgrid crisp" transform="translate(744.26,0)" d="M0,100v687" style="stroke: rgb(235, 240, 248); stroke-opacity: 1; stroke-width: 1px;"/><path class="xgrid crisp" transform="translate(868.42,0)" d="M0,100v687" style="stroke: rgb(235, 240, 248); stroke-opacity: 1; stroke-width: 1px;"/><path class="xgrid crisp" transform="translate(992.58,0)" d="M0,100v687" style="stroke: rgb(235, 240, 248); stroke-opacity: 1; stroke-width: 1px;"/><path class="xgrid crisp" transform="translate(1116.74,0)" d="M0,100v687" style="stroke: rgb(235, 240, 248); stroke-opacity: 1; stroke-width: 1px;"/><path class="xgrid crisp" transform="translate(1240.89,0)" d="M0,100v687" style="stroke: rgb(235, 240, 248); stroke-opacity: 1; stroke-width: 1px;"/><path class="xgrid crisp" transform="translate(1365.05,0)" d="M0,100v687" style="stroke: rgb(235, 240, 248); stroke-opacity: 1; stroke-width: 1px;"/></g><g class="y"><path class="ygrid crisp" transform="translate(0,656.71)" d="M88,0h1348" style="stroke: rgb(211, 211, 211); stroke-opacity: 1; stroke-width: 1px;"/><path class="ygrid crisp" transform="translate(0,535.5699999999999)" d="M88,0h1348" style="stroke: rgb(211, 211, 211); stroke-opacity: 1; stroke-width: 1px;"/><path class="ygrid crisp" transform="translate(0,414.43)" d="M88,0h1348" style="stroke: rgb(211, 211, 211); stroke-opacity: 1; stroke-width: 1px;"/><path class="ygrid crisp" transform="translate(0,293.28)" d="M88,0h1348" style="stroke: rgb(211, 211, 211); stroke-opacity: 1; stroke-width: 1px;"/><path class="ygrid crisp" transform="translate(0,172.14)" d="M88,0h1348" style="stroke: rgb(211, 211, 211); stroke-opacity: 1; stroke-width: 1px;"/></g></g><g class="zerolinelayer"><path class="yzl zl crisp" transform="translate(0,777.86)" d="M88,0h1348" style="stroke: rgb(235, 240, 248); stroke-opacity: 1; stroke-width: 2px;"/></g><g class="layer-between"><g class="shapelayer"/><g class="imagelayer"/></g><path class="xlines-below"/><path class="ylines-below"/><g class="overlines-below"/><g class="xaxislayer-below"/><g class="yaxislayer-below"/><g class="overaxes-below"/><g class="overplot"><g class="xy" transform="translate(88,100)" clip-path="url(#clip761d09xyplot)"><g class="scatterlayer mlayer"><g class="trace scatter trace2b74ee" style="stroke-miterlimit: 2; opacity: 1;"><g class="fills"/><g class="errorbars"/><g class="lines"><path class="js-line" d="M0,371.36Q6.39,413.34 8.87,413.16C13.47,412.82 13.89,266.72 17.74,266.57C20.3,266.47 24.14,302.27 26.61,330.78C31.46,386.87 23.12,575.31 35.47,581.55C38.02,582.84 41.81,580.06 44.34,575.49C55.56,555.28 46.56,366.22 53.21,365.31C55.66,364.97 59.59,392.83 62.08,392.56C66.5,392.08 64.95,304.56 70.95,302.92C73.4,302.25 76.43,312.53 79.82,315.03C82.5,317 86.23,319.59 88.68,318.06C95.37,313.9 95.07,248.9 97.55,249.01C102.22,249.22 101.11,495.79 106.42,496.14C108.87,496.3 112.71,464.79 115.29,444.05C119.06,413.72 116.81,334.05 124.16,331.39C126.62,330.5 130.58,335.56 133.03,340.47C138.29,351 139.16,398.08 141.89,398.02C145.16,397.94 148.27,314.94 150.76,315.03C155.16,315.19 155.85,574.82 159.63,574.89C162.21,574.94 165.74,497.6 168.5,454.35C171.72,404 167.09,296.89 177.37,290.8C179.89,289.31 183.76,291.45 186.24,295.04C194.44,306.93 192.63,402.33 195.11,402.26C199.65,402.13 201.01,41.85 203.97,41.85C206.92,41.85 208.84,307.33 212.84,399.83C215.38,458.46 218.45,499.66 221.71,543.39C224.45,580.24 227.81,645.18 230.58,645.15C233.79,645.11 236.5,553.99 239.45,508.26C242.41,462.33 239.23,385.26 248.32,370.15C250.81,366.01 254.64,369.03 257.18,364.7C268.73,345.01 263.02,149.68 266.05,149.67C268.94,149.66 271.2,291 274.92,344.11C277.51,381.07 280.38,410.55 283.79,437.99C286.47,459.55 289.97,495.62 292.66,495.54C296.05,495.44 298.89,438.49 301.53,403.47C305.03,357.13 306.6,241.86 310.39,241.74C312.96,241.66 316.52,288.76 319.26,315.64C322.53,347.77 323.5,397.52 328.13,421.64C330.61,434.53 334.52,437.83 337,450.71C341.62,474.74 343.06,556.13 345.87,556.11C349.01,556.08 352,471.88 354.74,424.06C358,367.25 354.68,240.3 363.61,237.5C366.1,236.72 370.01,249.65 372.47,249.01C377.54,247.68 378.52,187.79 381.34,187.83C384.46,187.87 387.74,229.8 390.21,262.94C395,327.18 393.72,487.91 399.08,547.02C401.53,574.05 405.47,605.91 407.95,605.78C412.57,605.53 413.03,454.75 416.82,399.23C419.39,361.61 422.83,304.71 425.68,304.73C428.75,304.75 430.23,414.02 434.55,414.37C437.05,414.57 440.93,394.19 443.42,378.63C447.92,350.43 449.74,258.04 452.29,258.09C456.23,258.17 456.1,484.23 461.16,547.02C463.62,577.57 467.52,614.97 470.03,614.86C474.25,614.68 475.55,479.25 478.89,421.64C481.59,374.98 484.1,330 487.76,295.04C490.36,270.17 493.98,255.64 496.63,231.44C500.12,199.51 502.8,119.95 505.5,119.99C508.86,120.04 511.64,230.41 514.37,293.83C517.66,370.44 518.36,491.09 523.24,547.63C525.71,576.2 529.63,611.96 532.11,611.84C536.75,611.61 536.03,434.76 540.97,384.69C543.43,359.75 545.05,330.12 549.84,328.96C552.31,328.36 556.2,333.85 558.71,341.08C568.73,369.91 564.1,579.68 567.58,579.73C570.23,579.77 573.55,441.01 576.45,441.02C579.47,441.03 580.79,556.13 585.32,591.24C587.8,610.46 591.73,635.65 594.18,635.46C599.54,635.04 599.66,483.39 603.05,419.82C605.74,369.36 607.78,284.37 611.92,284.14C614.44,284 617.77,317.63 620.79,333.81C623.69,349.3 624.56,377.15 629.66,379.24C632.12,380.25 636.01,371.93 638.53,373.18C648.84,378.3 643.3,507.51 647.39,553.08C649.91,581.16 653.74,621.02 656.26,620.92C660.42,620.75 661.46,485.84 665.13,434.36C667.73,397.9 670.88,370.6 674,341.08C676.82,314.35 680.17,264.71 682.87,264.76C686.22,264.83 687.32,354.4 691.74,382.27C694.23,397.97 698.11,403.11 700.61,418.61C704.9,445.19 706.38,493.31 709.47,528.25C712.31,560.29 715.77,620.39 718.34,620.32C722.13,620.22 723.9,480.46 727.21,420.43C729.93,371.16 732.46,286.07 736.08,285.96C738.69,285.88 741.07,337.51 744.95,355.61C747.51,367.52 749.66,383.33 753.82,384.69C756.33,385.51 760.17,376.86 762.68,378.03C772.56,382.65 767.17,508.68 771.55,550.05C774.04,573.6 777.91,605.3 780.42,605.17C784.67,604.95 785.54,488.56 789.29,445.26C791.87,415.5 793.2,371.1 798.16,370.15C800.62,369.68 804.58,387.04 807.03,386.51C813.49,385.1 806.72,263.2 815.89,257.49C818.39,255.94 822.17,257.38 824.76,261.12C839.45,282.33 825.43,522.45 833.63,568.83C836.11,582.84 840.05,595.82 842.5,595.48C849.19,594.54 840.79,409.37 851.37,387.11C853.89,381.8 857.75,384.36 860.24,379.24C869.04,361.15 866.08,231.45 869.11,231.44C872,231.43 873.86,365.08 877.97,365.31C880.49,365.45 884.37,315.48 886.84,315.64C891.71,315.96 888.21,481.48 895.71,512.5C898.18,522.7 902.13,532.33 904.58,531.88C910.89,530.71 910.23,434.15 913.45,390.75C916.21,353.54 919.35,287.17 922.32,287.17C925.26,287.17 926.91,388.57 931.18,388.93C933.68,389.14 937.56,369.74 940.05,355.01C944.51,328.63 946.39,242.89 948.92,242.95C952.94,243.05 949.16,485.71 957.79,526.43C960.28,538.16 964.21,548.62 966.66,548.23C972.17,547.36 973,478.31 975.53,429.51C979.58,351.27 979.01,123.92 984.39,123.62C986.84,123.48 990.59,162.92 993.26,186.62C996.69,217.09 997.26,268.55 1002.13,291.41C1004.6,302.98 1008.55,304.15 1011,316.85C1017.56,350.83 1016.17,456.61 1019.87,509.47C1022.46,546.55 1026.03,604 1028.74,603.96C1032.07,603.91 1034.75,510.31 1037.61,461.01C1040.67,408.19 1036.49,302.09 1046.47,296.86C1048.98,295.54 1052.57,299.89 1055.34,302.31C1058.55,305.13 1061.69,308.1 1064.21,313.21C1068.38,321.68 1070.63,333.43 1073.08,350.77C1078.38,388.23 1077.46,488.18 1081.95,530.67C1084.44,554.2 1085.86,574.53 1090.82,585.18C1093.28,590.46 1097.16,596.36 1099.68,595.48C1110.03,591.87 1105.4,437.96 1108.55,365.91C1111.35,301.79 1113.86,184.26 1117.42,184.19C1120.05,184.14 1122.78,282.81 1126.29,282.93C1128.93,283.02 1132.71,227.05 1135.16,227.2C1140.59,227.54 1140.13,430.75 1144.03,503.41C1146.58,550.86 1150.28,620.97 1152.89,620.92C1156.51,620.85 1154.91,432.83 1161.76,393.78C1164.22,379.77 1167.03,366.45 1170.63,365.91C1173.25,365.51 1177.05,379.29 1179.5,378.63C1186.07,376.85 1184.59,267.96 1188.37,267.78C1190.95,267.66 1194.78,295.41 1197.24,318.67C1202.47,368.23 1200.82,503.93 1206.11,553.08C1208.56,575.87 1212.51,602.91 1214.97,602.75C1219.89,602.42 1220.56,462.13 1223.84,401.04C1226.57,350.13 1224.01,278.08 1232.71,261.12C1235.2,256.27 1239.08,257.71 1241.58,253.85C1245.88,247.21 1247.98,220.9 1250.45,221.14C1255.18,221.6 1256.41,302.93 1259.32,344.71C1262.32,387.7 1264.61,438.71 1268.18,475.55C1270.8,502.63 1274.52,545.91 1277.05,545.81C1281.1,545.65 1283.19,430.32 1285.92,364.09C1289.21,284.27 1291.36,100.04 1294.79,100C1297.46,99.97 1300.61,259.9 1303.66,259.91C1306.53,259.92 1309.18,118.23 1312.53,118.17C1315.23,118.12 1318.9,170.45 1321.39,209.64C1325.84,279.73 1326.06,503.3 1330.26,503.41C1332.77,503.48 1335.55,428.03 1339.13,398.62Q1341.75,377.08 1348,342.89" style="vector-effect: none; fill: none; stroke: rgb(99, 110, 250); stroke-opacity: 1; stroke-width: 2px; opacity: 1;"/></g><g class="points"/><g class="text"/></g><g class="trace scatter trace73656b" style="stroke-miterlimit: 2; opacity: 1;"><g class="fills"/><g class="errorbars"/><g class="lines"><path class="js-line" d="M53.21,414.89L62.08,417.92L70.95,402.17L79.82,409.09L88.68,407.27L97.55,359.77L106.42,348.43L115.29,359.68L124.16,350.94L133.03,356.31L141.89,368.16L150.76,367.73L159.63,414.28L168.5,408.31L177.37,386.42L186.24,381.23L195.11,390.05L203.97,339.17L212.84,351.29L221.71,346.79L230.58,374.05L239.45,405.11L248.32,415.84L257.18,410.48L266.05,425.88L274.92,417.92L283.79,402.86L292.66,381.49L301.53,366.52L310.39,348.17L319.26,341.16L328.13,380.02L337,395.25L345.87,412.12L354.74,401.91L363.61,378.2L372.47,379.24L381.34,360.98L390.21,338.31L399.08,352.07L407.95,359.16L416.82,355.61L425.68,365.22L434.55,388.84L443.42,416.1L461.16,415.41L470.03,416.71L478.89,419.91L487.76,418.52L496.63,392.39L505.5,355.44L514.37,360.55L523.24,360.63L532.11,360.2L540.97,354.92L549.84,359.77L558.71,375.43L567.58,441.11L576.45,462.14L585.32,468.37L594.18,471.74L603.05,476.76L611.92,470.36L620.79,469.32L629.66,440.68L638.53,430.98L647.39,425.53L656.26,423.46L665.13,425.53L674,433.67L682.87,423.8L691.74,424.23L700.61,430.72L709.47,427.18L718.34,427.09L727.21,425.1L736.08,417.23L744.95,430.2L753.82,430.55L762.68,424.75L771.55,427.87L780.42,425.71L789.29,429.25L798.16,441.28L807.03,445.69L824.76,410.82L833.63,413.5L842.5,412.12L851.37,403.81L860.24,405.11L869.11,382.96L877.97,398.36L886.84,406.15L895.71,398.1L904.58,389.02L913.45,389.53L922.32,376.38L931.18,398.88L940.05,397.41L948.92,387.03L957.79,389.02L966.66,391.35L975.53,396.89L984.39,373.53L993.26,344.62L1002.13,335.54L1011,346.1L1019.87,343.67L1028.74,351.63L1037.61,356.13L1046.47,380.88L1055.34,397.41L1064.21,400.52L1073.08,405.37L1081.95,408.4L1090.82,405.72L1099.68,424.93L1108.55,434.79L1117.42,417.92L1126.29,413.59L1135.16,395.94L1144.03,392.04L1152.89,397.15L1161.76,368.33L1170.63,368.33L1179.5,396.11L1188.37,393.95L1197.24,407.01L1206.11,414.11L1214.97,411.51L1223.84,412.55L1232.71,397.58L1241.58,379.76L1250.45,373.09L1259.32,376.81L1268.18,365.74L1277.05,357.6L1285.92,352.33L1294.79,329.31L1303.66,330.17L1312.53,315.46L1321.39,296.17L1330.26,300.15L1339.13,279.12L1348,276.09" style="vector-effect: none; fill: none; stroke: rgb(255, 0, 0); stroke-opacity: 1; stroke-dasharray: 3px, 3px; stroke-width: 2px; opacity: 1;"/></g><g class="points"/><g class="text"/></g><g class="trace scatter trace8a7b39" style="stroke-miterlimit: 2; opacity: 1;"><g class="fills"/><g class="errorbars"/><g class="lines"/><g class="points"><path class="point" transform="translate(203.97,41.85)" d="M6,0A6,6 0 1,1 0,-6A6,6 0 0,1 6,0Z" style="opacity: 1; stroke-width: 0px; fill: rgb(0, 128, 0); fill-opacity: 1;"/></g><g class="text"><g class="textpoint" transform="translate(0,-12.5)"><text x="203.97" y="41.85" text-anchor="middle" style="font-family: Arial; font-size: 16px; fill: rgb(42, 63, 95); fill-opacity: 1; white-space: pre;">Peak</text></g></g></g><g class="trace scatter trace95ba35" style="stroke-miterlimit: 2; opacity: 1;"><g class="fills"/><g class="errorbars"/><g class="lines"/><g class="points"><path class="point" transform="translate(230.58,645.15)" d="M6,0A6,6 0 1,1 0,-6A6,6 0 0,1 6,0Z" style="opacity: 1; stroke-width: 0px; fill: rgb(255, 0, 0); fill-opacity: 1;"/></g><g class="text"><g class="textpoint" transform="translate(0,20.5)"><text x="230.58" y="645.15" text-anchor="middle" style="font-family: Arial; font-size: 16px; fill: rgb(42, 63, 95); fill-opacity: 1; white-space: pre;">Lowest</text></g></g></g></g></g></g><path class="xlines-above crisp" d="M86,788H1436" style="fill: none; stroke-width: 2px; stroke: rgb(0, 0, 0); stroke-opacity: 1;"/><path class="ylines-above crisp" d="M87,100V787" style="fill: none; stroke-width: 2px; stroke: rgb(0, 0, 0); stroke-opacity: 1;"/><g class="overlines-above"/><g class="xaxislayer-above"><g class="xtick"><text text-anchor="end" x="0" y="808.2" transform="translate(123.47,0) rotate(-45,0,800.2)" style="font-family: Arial; font-size: 16px; fill: rgb(42, 63, 95); fill-opacity: 1; white-space: pre; opacity: 1;"><tspan class="line" dy="0em" x="0" y="808.2">May 5</tspan><tspan class="line" dy="1.3em" x="0" y="808.2">2024</tspan></text></g><g class="xtick"><text text-anchor="end" x="0" y="808.2" style="font-family: Arial; font-size: 16px; fill: rgb(42, 63, 95); fill-opacity: 1; white-space: pre; opacity: 1;" transform="translate(247.63,0) rotate(-45,0,800.2)">May 19</text></g><g class="xtick"><text text-anchor="end" x="0" y="808.2" style="font-family: Arial; font-size: 16px; fill: rgb(42, 63, 95); fill-opacity: 1; white-space: pre; opacity: 1;" transform="translate(371.79,0) rotate(-45,0,800.2)">Jun 2</text></g><g class="xtick"><text text-anchor="end" x="0" y="808.2" style="font-family: Arial; font-size: 16px; fill: rgb(42, 63, 95); fill-opacity: 1; white-space: pre; opacity: 1;" transform="translate(495.95,0) rotate(-45,0,800.2)">Jun 16</text></g><g class="xtick"><text text-anchor="end" x="0" y="808.2" style="font-family: Arial; font-size: 16px; fill: rgb(42, 63, 95); fill-opacity: 1; white-space: pre; opacity: 1;" transform="translate(620.11,0) rotate(-45,0,800.2)">Jun 30</text></g><g class="xtick"><text text-anchor="end" x="0" y="808.2" style="font-family: Arial; font-size: 16px; fill: rgb(42, 63, 95); fill-opacity: 1; white-space: pre; opacity: 1;" transform="translate(744.26,0) rotate(-45,0,800.2)">Jul 14</text></g><g class="xtick"><text text-anchor="end" x="0" y="808.2" style="font-family: Arial; font-size: 16px; fill: rgb(42, 63, 95); fill-opacity: 1; white-space: pre; opacity: 1;" transform="translate(868.42,0) rotate(-45,0,800.2)">Jul 28</text></g><g class="xtick"><text text-anchor="end" x="0" y="808.2" style="font-family: Arial; font-size: 16px; fill: rgb(42, 63, 95); fill-opacity: 1; white-space: pre; opacity: 1;" transform="translate(992.58,0) rotate(-45,0,800.2)">Aug 11</text></g><g class="xtick"><text text-anchor="end" x="0" y="808.2" style="font-family: Arial; font-size: 16px; fill: rgb(42, 63, 95); fill-opacity: 1; white-space: pre; opacity: 1;" transform="translate(1116.74,0) rotate(-45,0,800.2)">Aug 25</text></g><g class="xtick"><text text-anchor="end" x="0" y="808.2" style="font-family: Arial; font-size: 16px; fill: rgb(42, 63, 95); fill-opacity: 1; white-space: pre; opacity: 1;" transform="translate(1240.89,0) rotate(-45,0,800.2)">Sep 8</text></g><g class="xtick"><text text-anchor="end" x="0" y="808.2" style="font-family: Arial; font-size: 16px; fill: rgb(42, 63, 95); fill-opacity: 1; white-space: pre; opacity: 1;" transform="translate(1365.05,0) rotate(-45,0,800.2)">Sep 22</text></g></g><g class="yaxislayer-above"><g class="ytick"><text text-anchor="end" x="82.8" y="5.6" transform="translate(0,777.86)" style="font-family: Arial; font-size: 16px; fill: rgb(42, 63, 95); fill-opacity: 1; white-space: pre; opacity: 1;">0</text></g><g class="ytick"><text text-anchor="end" x="82.8" y="5.6" style="font-family: Arial; font-size: 16px; fill: rgb(42, 63, 95); fill-opacity: 1; white-space: pre; opacity: 1;" transform="translate(0,656.71)">200</text></g><g class="ytick"><text text-anchor="end" x="82.8" y="5.6" style="font-family: Arial; font-size: 16px; fill: rgb(42, 63, 95); fill-opacity: 1; white-space: pre; opacity: 1;" transform="translate(0,535.5699999999999)">400</text></g><g class="ytick"><text text-anchor="end" x="82.8" y="5.6" style="font-family: Arial; font-size: 16px; fill: rgb(42, 63, 95); fill-opacity: 1; white-space: pre; opacity: 1;" transform="translate(0,414.43)">600</text></g><g class="ytick"><text text-anchor="end" x="82.8" y="5.6" style="font-family: Arial; font-size: 16px; fill: rgb(42, 63, 95); fill-opacity: 1; white-space: pre; opacity: 1;" transform="translate(0,293.28)">800</text></g><g class="ytick"><text text-anchor="end" x="82.8" y="5.6" style="font-family: Arial; font-size: 16px; fill: rgb(42, 63, 95); fill-opacity: 1; white-space: pre; opacity: 1;" transform="translate(0,172.14)">1000</text></g></g><g class="overaxes-above"/></g></g><g class="polarlayer"/><g class="smithlayer"/><g class="ternarylayer"/><g class="geolayer"/><g class="funnelarealayer"/><g class="pielayer"/><g class="iciclelayer"/><g class="treemaplayer"/><g class="sunburstlayer"/><g class="glimages"/><defs id="topdefs-761d09"><g class="clips"/><clipPath id="legend761d09"><rect width="225" height="82" x="0" y="0"/></clipPath></defs><g class="layer-above"><g class="imagelayer"/><g class="shapelayer"/></g><g class="infolayer"><g class="legend" pointer-events="all" transform="translate(1462.96,100)"><rect class="bg" shape-rendering="crispEdges" width="225" height="82" x="0" y="0" style="stroke: rgb(68, 68, 68); stroke-opacity: 1; fill: rgb(255, 255, 255); fill-opacity: 1; stroke-width: 0px;"/><g class="scrollbox" transform="" clip-path="url(#legend761d09)"><g class="groups"><g class="traces" transform="translate(0,16.9)" style="opacity: 1;"><text class="legendtext" text-anchor="start" x="40" y="6.24" style="font-family: Arial; font-size: 16px; fill: rgb(42, 63, 95); fill-opacity: 1; white-space: pre;">7-Day Moving Average</text><g class="layers" style="opacity: 1;"><g class="legendfill"/><g class="legendlines"><path class="js-line" d="M5,0h30" style="fill: none; stroke: rgb(255, 0, 0); stroke-opacity: 1; stroke-dasharray: 3px, 3px; stroke-width: 2px;"/></g><g class="legendsymbols"><g class="legendpoints"/></g></g><rect class="legendtoggle" x="0" y="-11.9" width="220" height="23.8" style="fill: rgb(0, 0, 0); fill-opacity: 0;"/></g><g class="traces" transform="translate(0,40.7)" style="opacity: 1;"><text class="legendtext" text-anchor="start" x="40" y="6.24" style="font-family: Arial; font-size: 16px; fill: rgb(42, 63, 95); fill-opacity: 1; white-space: pre;">trace 2</text><g class="layers" style="opacity: 1;"><g class="legendfill"/><g class="legendlines"/><g class="legendsymbols"><g class="legendpoints"><path class="scatterpts" transform="translate(20,0)" d="M6,0A6,6 0 1,1 0,-6A6,6 0 0,1 6,0Z" style="opacity: 1; stroke-width: 0px; fill: rgb(0, 128, 0); fill-opacity: 1;"/></g></g></g><rect class="legendtoggle" x="0" y="-11.9" width="220" height="23.8" style="fill: rgb(0, 0, 0); fill-opacity: 0;"/></g><g class="traces" transform="translate(0,64.5)" style="opacity: 1;"><text class="legendtext" text-anchor="start" x="40" y="6.24" style="font-family: Arial; font-size: 16px; fill: rgb(42, 63, 95); fill-opacity: 1; white-space: pre;">trace 3</text><g class="layers" style="opacity: 1;"><g class="legendfill"/><g class="legendlines"/><g class="legendsymbols"><g class="legendpoints"><path class="scatterpts" transform="translate(20,0)" d="M6,0A6,6 0 1,1 0,-6A6,6 0 0,1 6,0Z" style="opacity: 1; stroke-width: 0px; fill: rgb(255, 0, 0); fill-opacity: 1;"/></g></g></g><rect class="legendtoggle" x="0" y="-11.9" width="220" height="23.8" style="fill: rgb(0, 0, 0); fill-opacity: 0;"/></g></g></g><rect class="scrollbar" rx="20" ry="3" width="0" height="0" x="0" y="0" style="fill: rgb(128, 139, 164); fill-opacity: 1;"/></g><g class="g-gtitle"><text class="gtitle" x="85" y="50" text-anchor="start" dy="0em" style="opacity: 1; font-family: Arial; font-size: 28px; fill: rgb(0, 0, 0); fill-opacity: 1; white-space: pre;">Job Posting Trends Over Time</text></g><g class="g-xtitle"><text class="xtitle" x="762" y="886.733984375" text-anchor="middle" style="opacity: 1; font-family: Arial; font-size: 22px; fill: rgb(0, 0, 0); fill-opacity: 1; white-space: pre;">Date Posted</text></g><g class="g-ytitle"><text class="ytitle" transform="rotate(-90,21.096874999999997,443.5)" x="21.096874999999997" y="443.5" text-anchor="middle" style="opacity: 1; font-family: Arial; font-size: 22px; fill: rgb(0, 0, 0); fill-opacity: 1; white-space: pre;">Job Postings</text></g></g></svg>