<svg class="main-svg" xmlns="http://www.w3.org/2000/svg" xmlns:xlink="http://www.w3.org/1999/xlink" width="850" height="500" style="" viewBox="0 0 850 500"><rect x="0" y="0" width="850" height="500" style="fill: rgb(255, 255, 255); fill-opacity: 1;"/><defs id="defs-0f04d0"><g class="clips"><clipPath id="clip0f04d0xyplot" class="plotclip"><rect width="638" height="297"/></clipPath><clipPath class="axesclip" id="clip0f04d0x"><rect x="86" y="0" width="638" height="500"/></clipPath><clipPath class="axesclip" id="clip0f04d0y"><rect x="0" y="100" width="850" height="297"/></clipPath><clipPath class="axesclip" id="clip0f04d0xy"><rect x="86" y="100" width="638" height="297"/></clipPath></g><g class="gradients"/><g class="patterns"/></defs><g class="bglayer"/><g class="layer-below"><g class="imagelayer"/><g class="shapelayer"/></g><g class="cartesianlayer"><g class="subplot xy"><g class="layer-subplot"><g class="shapelayer"/><g class="imagelayer"/></g><g class="minor-gridlayer"><g class="x"/><g class="y"/></g><g class="gridlayer"><g class="x"><path class="xgrid crisp" transform="translate(121.65,0)" d="M0,100v297" style="stroke: rgb(255, 255, 255); stroke-opacity: 1; stroke-width: 1px;"/><path class="xgrid crisp" transform="translate(237.23,0)" d="M0,100v297" style="stroke: rgb(255, 255, 255); stroke-opacity: 1; stroke-width: 1px;"/><path class="xgrid crisp" transform="translate(349.08,0)" d="M0,100v297" style="stroke: rgb(255, 255, 255); stroke-opacity: 1; stroke-width: 1px;"/><path class="xgrid crisp" transform="translate(464.65,0)" d="M0,100v297" style="stroke: rgb(255, 255, 255); stroke-opacity: 1; stroke-width: 1px;"/><path class="xgrid crisp" transform="translate(580.23,0)" d="M0,100v297" style="stroke: rgb(255, 255, 255); stroke-opacity: 1; stroke-width: 1px;"/><path class="xgrid crisp" transform="translate(692.08,0)" d="M0,100v297" style="stroke: rgb(255, 255, 255); stroke-opacity: 1; stroke-width: 1px;"/></g><g class="y"><path class="ygrid crisp" transform="translate(0,337.66999999999996)" d="M86,0h638" style="stroke: rgb(211, 211, 211); stroke-opacity: 1; stroke-width: 1px;"/><path class="ygrid crisp" transform="translate(0,287)" d="M86,0h638" style="stroke: rgb(211, 211, 211); stroke-opacity: 1; stroke-width: 1px;"/><path class="ygrid crisp" transform="translate(0,236.34)" d="M86,0h638" style="stroke: rgb(211, 211, 211); stroke-opacity: 1; stroke-width: 1px;"/><path class="ygrid crisp" transform="translate(0,185.68)" d="M86,0h638" style="stroke: rgb(211, 211, 211); stroke-opacity: 1; stroke-width: 1px;"/><path class="ygrid crisp" transform="translate(0,135.02)" d="M86,0h638" style="stroke: rgb(211, 211, 211); stroke-opacity: 1; stroke-width: 1px;"/></g></g><g class="zerolinelayer"><path class="yzl zl crisp" transform="translate(0,388.33)" d="M86,0h638" style="stroke: rgb(255, 255, 255); stroke-opacity: 1; stroke-width: 2px;"/></g><g class="layer-between"><g class="shapelayer"/><g class="imagelayer"/></g><path class="xlines-below"/><path class="ylines-below"/><g class="overlines-below"/><g class="xaxislayer-below"/><g class="yaxislayer-below"/><g class="overaxes-below"/><g class="overplot"><g class="xy" transform="translate(86,100)" clip-path="url(#clip0f04d0xyplot)"><g class="scatterlayer mlayer"><g class="trace scatter traced4f934" style="stroke-miterlimit: 2; opacity: 1;"><g class="fills"/><g class="errorbars"/><g class="lines"><path class="js-line" d="M35.65,160.15L39.38,177.63L43.11,116.33L46.83,143.18L50.56,248.05L54.29,245.52L58.02,157.62L61.75,169.02L65.48,131.53L69.2,136.59L72.93,137.86L76.66,108.98L80.39,212.33L84.12,190.55L87.85,143.43L91.57,147.23L95.3,171.3L99.03,136.59L102.76,245.27L106.49,194.86L110.22,126.46L113.94,128.23L117.67,173.07L121.4,22.35L125.13,172.06L128.86,232.09L132.59,274.65L140.04,159.65L143.77,157.37L147.5,67.44L151.23,148.75L154.96,188.02L158.68,212.08L162.41,173.58L166.14,105.94L169.87,136.85L173.6,181.18L177.32,193.34L181.05,237.41L184.78,182.19L188.51,104.17L192.24,108.98L195.97,83.4L199.69,114.81L203.42,233.61L207.15,258.18L210.88,171.8L214.61,132.29L218.34,178.14L222.06,163.19L225.79,112.78L229.52,233.61L233.25,261.98L236.98,181.18L240.71,128.23L244.43,101.64L248.16,55.03L251.89,127.73L255.62,233.87L259.35,260.72L263.08,165.73L266.8,142.42L270.53,147.49L274.26,247.29L277.99,189.28L281.72,252.11L285.45,270.6L289.17,180.42L292.9,123.68L300.36,163.45L304.09,160.91L307.82,236.15L311.54,264.52L315.27,186.5L319,147.49L322.73,115.57L326.46,164.71L330.18,179.91L333.91,225.76L337.64,264.26L341.37,180.67L345.1,124.44L348.83,153.57L352.55,165.73L356.28,162.94L360.01,234.88L363.74,257.93L367.47,191.06L371.2,159.65L374.92,166.49L378.65,112.53L382.38,114.05L386.11,242.73L389.84,253.88L393.57,166.74L397.29,163.45L401.02,101.64L404.75,157.62L408.48,136.85L412.21,219.17L415.94,227.28L419.66,168.26L423.39,124.94L427.12,167.5L430.85,153.31L434.58,106.45L438.31,225L442.03,234.12L445.76,184.47L449.49,56.55L453.22,82.89L456.95,126.72L460.68,137.35L464.4,217.91L468.13,257.42L475.59,128.99L479.32,131.27L483.04,135.83L486.77,151.54L490.5,226.77L494.23,249.57L497.96,253.88L501.69,157.87L505.41,81.88L509.14,123.17L512.87,99.86L516.6,215.37L520.33,264.52L524.06,169.52L527.78,157.87L531.51,163.19L535.24,116.84L538.97,138.11L542.7,236.15L546.43,256.92L550.15,172.56L553.88,114.05L557.61,111.01L561.34,97.33L568.8,203.72L572.52,233.11L576.25,157.11L579.98,46.67L583.71,113.54L587.44,54.27L591.17,92.52L594.89,215.37L598.62,171.55L602.35,148.25" style="vector-effect: none; fill: none; stroke: rgb(159, 197, 232); stroke-opacity: 1; stroke-width: 2px; opacity: 1;"/></g><g class="points"><path class="point" transform="translate(35.65,160.15)" d="M3,0A3,3 0 1,1 0,-3A3,3 0 0,1 3,0Z" style="opacity: 1; stroke-width: 0px; fill: rgb(159, 197, 232); fill-opacity: 1;"/><path class="point" transform="translate(39.38,177.63)" d="M3,0A3,3 0 1,1 0,-3A3,3 0 0,1 3,0Z" style="opacity: 1; stroke-width: 0px; fill: rgb(159, 197, 232); fill-opacity: 1;"/><path class="point" transform="translate(43.11,116.33)" d="M3,0A3,3 0 1,1 0,-3A3,3 0 0,1 3,0Z" style="opacity: 1; stroke-width: 0px; fill: rgb(159, 197, 232); fill-opacity: 1;"/><path class="point" transform="translate(46.83,143.18)" d="M3,0A3,3 0 1,1 0,-3A3,3 0 0,1 3,0Z" style="opacity: 1; stroke-width: 0px; fill: rgb(159, 197, 232); fill-opacity: 1;"/><path class="point" transform="translate(50.56,248.05)" d="M3,0A3,3 0 1,1 0,-3A3,3 0 0,1 3,0Z" style="opacity: 1; stroke-width: 0px; fill: rgb(159, 197, 232); fill-opacity: 1;"/><path class="point" transform="translate(54.29,245.52)" d="M3,0A3,3 0 1,1 0,-3A3,3 0 0,1 3,0Z" style="opacity: 1; stroke-width: 0px; fill: rgb(159, 197, 232); fill-opacity: 1;"/><path class="point" transform="translate(58.02,157.62)" d="M3,0A3,3 0 1,1 0,-3A3,3 0 0,1 3,0Z" style="opacity: 1; stroke-width: 0px; fill: rgb(159, 197, 232); fill-opacity: 1;"/><path class="point" transform="translate(61.75,169.02)" d="M3,0A3,3 0 1,1 0,-3A3,3 0 0,1 3,0Z" style="opacity: 1; stroke-width: 0px; fill: rgb(159, 197, 232); fill-opacity: 1;"/><path class="point" transform="translate(65.48,131.53)" d="M3,0A3,3 0 1,1 0,-3A3,3 0 0,1 3,0Z" style="opacity: 1; stroke-width: 0px; fill: rgb(159, 197, 232); fill-opacity: 1;"/><path class="point" transform="translate(69.2,136.59)" d="M3,0A3,3 0 1,1 0,-3A3,3 0 0,1 3,0Z" style="opacity: 1; stroke-width: 0px; fill: rgb(159, 197, 232); fill-opacity: 1;"/><path class="point" transform="translate(72.93,137.86)" d="M3,0A3,3 0 1,1 0,-3A3,3 0 0,1 3,0Z" style="opacity: 1; stroke-width: 0px; fill: rgb(159, 197, 232); fill-opacity: 1;"/><path class="point" transform="translate(76.66,108.98)" d="M3,0A3,3 0 1,1 0,-3A3,3 0 0,1 3,0Z" style="opacity: 1; stroke-width: 0px; fill: rgb(159, 197, 232); fill-opacity: 1;"/><path class="point" transform="translate(80.39,212.33)" d="M3,0A3,3 0 1,1 0,-3A3,3 0 0,1 3,0Z" style="opacity: 1; stroke-width: 0px; fill: rgb(159, 197, 232); fill-opacity: 1;"/><path class="point" transform="translate(84.12,190.55)" d="M3,0A3,3 0 1,1 0,-3A3,3 0 0,1 3,0Z" style="opacity: 1; stroke-width: 0px; fill: rgb(159, 197, 232); fill-opacity: 1;"/><path class="point" transform="translate(87.85,143.43)" d="M3,0A3,3 0 1,1 0,-3A3,3 0 0,1 3,0Z" style="opacity: 1; stroke-width: 0px; fill: rgb(159, 197, 232); fill-opacity: 1;"/><path class="point" transform="translate(91.57,147.23)" d="M3,0A3,3 0 1,1 0,-3A3,3 0 0,1 3,0Z" style="opacity: 1; stroke-width: 0px; fill: rgb(159, 197, 232); fill-opacity: 1;"/><path class="point" transform="translate(95.3,171.3)" d="M3,0A3,3 0 1,1 0,-3A3,3 0 0,1 3,0Z" style="opacity: 1; stroke-width: 0px; fill: rgb(159, 197, 232); fill-opacity: 1;"/><path class="point" transform="translate(99.03,136.59)" d="M3,0A3,3 0 1,1 0,-3A3,3 0 0,1 3,0Z" style="opacity: 1; stroke-width: 0px; fill: rgb(159, 197, 232); fill-opacity: 1;"/><path class="point" transform="translate(102.76,245.27)" d="M3,0A3,3 0 1,1 0,-3A3,3 0 0,1 3,0Z" style="opacity: 1; stroke-width: 0px; fill: rgb(159, 197, 232); fill-opacity: 1;"/><path class="point" transform="translate(106.49,194.86)" d="M3,0A3,3 0 1,1 0,-3A3,3 0 0,1 3,0Z" style="opacity: 1; stroke-width: 0px; fill: rgb(159, 197, 232); fill-opacity: 1;"/><path class="point" transform="translate(110.22,126.46)" d="M3,0A3,3 0 1,1 0,-3A3,3 0 0,1 3,0Z" style="opacity: 1; stroke-width: 0px; fill: rgb(159, 197, 232); fill-opacity: 1;"/><path class="point" transform="translate(113.94,128.23)" d="M3,0A3,3 0 1,1 0,-3A3,3 0 0,1 3,0Z" style="opacity: 1; stroke-width: 0px; fill: rgb(159, 197, 232); fill-opacity: 1;"/><path class="point" transform="translate(117.67,173.07)" d="M3,0A3,3 0 1,1 0,-3A3,3 0 0,1 3,0Z" style="opacity: 1; stroke-width: 0px; fill: rgb(159, 197, 232); fill-opacity: 1;"/><path class="point" transform="translate(121.4,22.35)" d="M3,0A3,3 0 1,1 0,-3A3,3 0 0,1 3,0Z" style="opacity: 1; stroke-width: 0px; fill: rgb(159, 197, 232); fill-opacity: 1;"/><path class="point" transform="translate(125.13,172.06)" d="M3,0A3,3 0 1,1 0,-3A3,3 0 0,1 3,0Z" style="opacity: 1; stroke-width: 0px; fill: rgb(159, 197, 232); fill-opacity: 1;"/><path class="point" transform="translate(128.86,232.09)" d="M3,0A3,3 0 1,1 0,-3A3,3 0 0,1 3,0Z" style="opacity: 1; stroke-width: 0px; fill: rgb(159, 197, 232); fill-opacity: 1;"/><path class="point" transform="translate(132.59,274.65)" d="M3,0A3,3 0 1,1 0,-3A3,3 0 0,1 3,0Z" style="opacity: 1; stroke-width: 0px; fill: rgb(159, 197, 232); fill-opacity: 1;"/><path class="point" transform="translate(136.31,217.4)" d="M3,0A3,3 0 1,1 0,-3A3,3 0 0,1 3,0Z" style="opacity: 1; stroke-width: 0px; fill: rgb(159, 197, 232); fill-opacity: 1;"/><path class="point" transform="translate(140.04,159.65)" d="M3,0A3,3 0 1,1 0,-3A3,3 0 0,1 3,0Z" style="opacity: 1; stroke-width: 0px; fill: rgb(159, 197, 232); fill-opacity: 1;"/><path class="point" transform="translate(143.77,157.37)" d="M3,0A3,3 0 1,1 0,-3A3,3 0 0,1 3,0Z" style="opacity: 1; stroke-width: 0px; fill: rgb(159, 197, 232); fill-opacity: 1;"/><path class="point" transform="translate(147.5,67.44)" d="M3,0A3,3 0 1,1 0,-3A3,3 0 0,1 3,0Z" style="opacity: 1; stroke-width: 0px; fill: rgb(159, 197, 232); fill-opacity: 1;"/><path class="point" transform="translate(151.23,148.75)" d="M3,0A3,3 0 1,1 0,-3A3,3 0 0,1 3,0Z" style="opacity: 1; stroke-width: 0px; fill: rgb(159, 197, 232); fill-opacity: 1;"/><path class="point" transform="translate(154.96,188.02)" d="M3,0A3,3 0 1,1 0,-3A3,3 0 0,1 3,0Z" style="opacity: 1; stroke-width: 0px; fill: rgb(159, 197, 232); fill-opacity: 1;"/><path class="point" transform="translate(158.68,212.08)" d="M3,0A3,3 0 1,1 0,-3A3,3 0 0,1 3,0Z" style="opacity: 1; stroke-width: 0px; fill: rgb(159, 197, 232); fill-opacity: 1;"/><path class="point" transform="translate(162.41,173.58)" d="M3,0A3,3 0 1,1 0,-3A3,3 0 0,1 3,0Z" style="opacity: 1; stroke-width: 0px; fill: rgb(159, 197, 232); fill-opacity: 1;"/><path class="point" transform="translate(166.14,105.94)" d="M3,0A3,3 0 1,1 0,-3A3,3 0 0,1 3,0Z" style="opacity: 1; stroke-width: 0px; fill: rgb(159, 197, 232); fill-opacity: 1;"/><path class="point" transform="translate(169.87,136.85)" d="M3,0A3,3 0 1,1 0,-3A3,3 0 0,1 3,0Z" style="opacity: 1; stroke-width: 0px; fill: rgb(159, 197, 232); fill-opacity: 1;"/><path class="point" transform="translate(173.6,181.18)" d="M3,0A3,3 0 1,1 0,-3A3,3 0 0,1 3,0Z" style="opacity: 1; stroke-width: 0px; fill: rgb(159, 197, 232); fill-opacity: 1;"/><path class="point" transform="translate(177.32,193.34)" d="M3,0A3,3 0 1,1 0,-3A3,3 0 0,1 3,0Z" style="opacity: 1; stroke-width: 0px; fill: rgb(159, 197, 232); fill-opacity: 1;"/><path class="point" transform="translate(181.05,237.41)" d="M3,0A3,3 0 1,1 0,-3A3,3 0 0,1 3,0Z" style="opacity: 1; stroke-width: 0px; fill: rgb(159, 197, 232); fill-opacity: 1;"/><path class="point" transform="translate(184.78,182.19)" d="M3,0A3,3 0 1,1 0,-3A3,3 0 0,1 3,0Z" style="opacity: 1; stroke-width: 0px; fill: rgb(159, 197, 232); fill-opacity: 1;"/><path class="point" transform="translate(188.51,104.17)" d="M3,0A3,3 0 1,1 0,-3A3,3 0 0,1 3,0Z" style="opacity: 1; stroke-width: 0px; fill: rgb(159, 197, 232); fill-opacity: 1;"/><path class="point" transform="translate(192.24,108.98)" d="M3,0A3,3 0 1,1 0,-3A3,3 0 0,1 3,0Z" style="opacity: 1; stroke-width: 0px; fill: rgb(159, 197, 232); fill-opacity: 1;"/><path class="point" transform="translate(195.97,83.4)" d="M3,0A3,3 0 1,1 0,-3A3,3 0 0,1 3,0Z" style="opacity: 1; stroke-width: 0px; fill: rgb(159, 197, 232); fill-opacity: 1;"/><path class="point" transform="translate(199.69,114.81)" d="M3,0A3,3 0 1,1 0,-3A3,3 0 0,1 3,0Z" style="opacity: 1; stroke-width: 0px; fill: rgb(159, 197, 232); fill-opacity: 1;"/><path class="point" transform="translate(203.42,233.61)" d="M3,0A3,3 0 1,1 0,-3A3,3 0 0,1 3,0Z" style="opacity: 1; stroke-width: 0px; fill: rgb(159, 197, 232); fill-opacity: 1;"/><path class="point" transform="translate(207.15,258.18)" d="M3,0A3,3 0 1,1 0,-3A3,3 0 0,1 3,0Z" style="opacity: 1; stroke-width: 0px; fill: rgb(159, 197, 232); fill-opacity: 1;"/><path class="point" transform="translate(210.88,171.8)" d="M3,0A3,3 0 1,1 0,-3A3,3 0 0,1 3,0Z" style="opacity: 1; stroke-width: 0px; fill: rgb(159, 197, 232); fill-opacity: 1;"/><path class="point" transform="translate(214.61,132.29)" d="M3,0A3,3 0 1,1 0,-3A3,3 0 0,1 3,0Z" style="opacity: 1; stroke-width: 0px; fill: rgb(159, 197, 232); fill-opacity: 1;"/><path class="point" transform="translate(218.34,178.14)" d="M3,0A3,3 0 1,1 0,-3A3,3 0 0,1 3,0Z" style="opacity: 1; stroke-width: 0px; fill: rgb(159, 197, 232); fill-opacity: 1;"/><path class="point" transform="translate(222.06,163.19)" d="M3,0A3,3 0 1,1 0,-3A3,3 0 0,1 3,0Z" style="opacity: 1; stroke-width: 0px; fill: rgb(159, 197, 232); fill-opacity: 1;"/><path class="point" transform="translate(225.79,112.78)" d="M3,0A3,3 0 1,1 0,-3A3,3 0 0,1 3,0Z" style="opacity: 1; stroke-width: 0px; fill: rgb(159, 197, 232); fill-opacity: 1;"/><path class="point" transform="translate(229.52,233.61)" d="M3,0A3,3 0 1,1 0,-3A3,3 0 0,1 3,0Z" style="opacity: 1; stroke-width: 0px; fill: rgb(159, 197, 232); fill-opacity: 1;"/><path class="point" transform="translate(233.25,261.98)" d="M3,0A3,3 0 1,1 0,-3A3,3 0 0,1 3,0Z" style="opacity: 1; stroke-width: 0px; fill: rgb(159, 197, 232); fill-opacity: 1;"/><path class="point" transform="translate(236.98,181.18)" d="M3,0A3,3 0 1,1 0,-3A3,3 0 0,1 3,0Z" style="opacity: 1; stroke-width: 0px; fill: rgb(159, 197, 232); fill-opacity: 1;"/><path class="point" transform="translate(240.71,128.23)" d="M3,0A3,3 0 1,1 0,-3A3,3 0 0,1 3,0Z" style="opacity: 1; stroke-width: 0px; fill: rgb(159, 197, 232); fill-opacity: 1;"/><path class="point" transform="translate(244.43,101.64)" d="M3,0A3,3 0 1,1 0,-3A3,3 0 0,1 3,0Z" style="opacity: 1; stroke-width: 0px; fill: rgb(159, 197, 232); fill-opacity: 1;"/><path class="point" transform="translate(248.16,55.03)" d="M3,0A3,3 0 1,1 0,-3A3,3 0 0,1 3,0Z" style="opacity: 1; stroke-width: 0px; fill: rgb(159, 197, 232); fill-opacity: 1;"/><path class="point" transform="translate(251.89,127.73)" d="M3,0A3,3 0 1,1 0,-3A3,3 0 0,1 3,0Z" style="opacity: 1; stroke-width: 0px; fill: rgb(159, 197, 232); fill-opacity: 1;"/><path class="point" transform="translate(255.62,233.87)" d="M3,0A3,3 0 1,1 0,-3A3,3 0 0,1 3,0Z" style="opacity: 1; stroke-width: 0px; fill: rgb(159, 197, 232); fill-opacity: 1;"/><path class="point" transform="translate(259.35,260.72)" d="M3,0A3,3 0 1,1 0,-3A3,3 0 0,1 3,0Z" style="opacity: 1; stroke-width: 0px; fill: rgb(159, 197, 232); fill-opacity: 1;"/><path class="point" transform="translate(263.08,165.73)" d="M3,0A3,3 0 1,1 0,-3A3,3 0 0,1 3,0Z" style="opacity: 1; stroke-width: 0px; fill: rgb(159, 197, 232); fill-opacity: 1;"/><path class="point" transform="translate(266.8,142.42)" d="M3,0A3,3 0 1,1 0,-3A3,3 0 0,1 3,0Z" style="opacity: 1; stroke-width: 0px; fill: rgb(159, 197, 232); fill-opacity: 1;"/><path class="point" transform="translate(270.53,147.49)" d="M3,0A3,3 0 1,1 0,-3A3,3 0 0,1 3,0Z" style="opacity: 1; stroke-width: 0px; fill: rgb(159, 197, 232); fill-opacity: 1;"/><path class="point" transform="translate(274.26,247.29)" d="M3,0A3,3 0 1,1 0,-3A3,3 0 0,1 3,0Z" style="opacity: 1; stroke-width: 0px; fill: rgb(159, 197, 232); fill-opacity: 1;"/><path class="point" transform="translate(277.99,189.28)" d="M3,0A3,3 0 1,1 0,-3A3,3 0 0,1 3,0Z" style="opacity: 1; stroke-width: 0px; fill: rgb(159, 197, 232); fill-opacity: 1;"/><path class="point" transform="translate(281.72,252.11)" d="M3,0A3,3 0 1,1 0,-3A3,3 0 0,1 3,0Z" style="opacity: 1; stroke-width: 0px; fill: rgb(159, 197, 232); fill-opacity: 1;"/><path class="point" transform="translate(285.45,270.6)" d="M3,0A3,3 0 1,1 0,-3A3,3 0 0,1 3,0Z" style="opacity: 1; stroke-width: 0px; fill: rgb(159, 197, 232); fill-opacity: 1;"/><path class="point" transform="translate(289.17,180.42)" d="M3,0A3,3 0 1,1 0,-3A3,3 0 0,1 3,0Z" style="opacity: 1; stroke-width: 0px; fill: rgb(159, 197, 232); fill-opacity: 1;"/><path class="point" transform="translate(292.9,123.68)" d="M3,0A3,3 0 1,1 0,-3A3,3 0 0,1 3,0Z" style="opacity: 1; stroke-width: 0px; fill: rgb(159, 197, 232); fill-opacity: 1;"/><path class="point" transform="translate(296.63,144.45)" d="M3,0A3,3 0 1,1 0,-3A3,3 0 0,1 3,0Z" style="opacity: 1; stroke-width: 0px; fill: rgb(159, 197, 232); fill-opacity: 1;"/><path class="point" transform="translate(300.36,163.45)" d="M3,0A3,3 0 1,1 0,-3A3,3 0 0,1 3,0Z" style="opacity: 1; stroke-width: 0px; fill: rgb(159, 197, 232); fill-opacity: 1;"/><path class="point" transform="translate(304.09,160.91)" d="M3,0A3,3 0 1,1 0,-3A3,3 0 0,1 3,0Z" style="opacity: 1; stroke-width: 0px; fill: rgb(159, 197, 232); fill-opacity: 1;"/><path class="point" transform="translate(307.82,236.15)" d="M3,0A3,3 0 1,1 0,-3A3,3 0 0,1 3,0Z" style="opacity: 1; stroke-width: 0px; fill: rgb(159, 197, 232); fill-opacity: 1;"/><path class="point" transform="translate(311.54,264.52)" d="M3,0A3,3 0 1,1 0,-3A3,3 0 0,1 3,0Z" style="opacity: 1; stroke-width: 0px; fill: rgb(159, 197, 232); fill-opacity: 1;"/><path class="point" transform="translate(315.27,186.5)" d="M3,0A3,3 0 1,1 0,-3A3,3 0 0,1 3,0Z" style="opacity: 1; stroke-width: 0px; fill: rgb(159, 197, 232); fill-opacity: 1;"/><path class="point" transform="translate(319,147.49)" d="M3,0A3,3 0 1,1 0,-3A3,3 0 0,1 3,0Z" style="opacity: 1; stroke-width: 0px; fill: rgb(159, 197, 232); fill-opacity: 1;"/><path class="point" transform="translate(322.73,115.57)" d="M3,0A3,3 0 1,1 0,-3A3,3 0 0,1 3,0Z" style="opacity: 1; stroke-width: 0px; fill: rgb(159, 197, 232); fill-opacity: 1;"/><path class="point" transform="translate(326.46,164.71)" d="M3,0A3,3 0 1,1 0,-3A3,3 0 0,1 3,0Z" style="opacity: 1; stroke-width: 0px; fill: rgb(159, 197, 232); fill-opacity: 1;"/><path class="point" transform="translate(330.18,179.91)" d="M3,0A3,3 0 1,1 0,-3A3,3 0 0,1 3,0Z" style="opacity: 1; stroke-width: 0px; fill: rgb(159, 197, 232); fill-opacity: 1;"/><path class="point" transform="translate(333.91,225.76)" d="M3,0A3,3 0 1,1 0,-3A3,3 0 0,1 3,0Z" style="opacity: 1; stroke-width: 0px; fill: rgb(159, 197, 232); fill-opacity: 1;"/><path class="point" transform="translate(337.64,264.26)" d="M3,0A3,3 0 1,1 0,-3A3,3 0 0,1 3,0Z" style="opacity: 1; stroke-width: 0px; fill: rgb(159, 197, 232); fill-opacity: 1;"/><path class="point" transform="translate(341.37,180.67)" d="M3,0A3,3 0 1,1 0,-3A3,3 0 0,1 3,0Z" style="opacity: 1; stroke-width: 0px; fill: rgb(159, 197, 232); fill-opacity: 1;"/><path class="point" transform="translate(345.1,124.44)" d="M3,0A3,3 0 1,1 0,-3A3,3 0 0,1 3,0Z" style="opacity: 1; stroke-width: 0px; fill: rgb(159, 197, 232); fill-opacity: 1;"/><path class="point" transform="translate(348.83,153.57)" d="M3,0A3,3 0 1,1 0,-3A3,3 0 0,1 3,0Z" style="opacity: 1; stroke-width: 0px; fill: rgb(159, 197, 232); fill-opacity: 1;"/><path class="point" transform="translate(352.55,165.73)" d="M3,0A3,3 0 1,1 0,-3A3,3 0 0,1 3,0Z" style="opacity: 1; stroke-width: 0px; fill: rgb(159, 197, 232); fill-opacity: 1;"/><path class="point" transform="translate(356.28,162.94)" d="M3,0A3,3 0 1,1 0,-3A3,3 0 0,1 3,0Z" style="opacity: 1; stroke-width: 0px; fill: rgb(159, 197, 232); fill-opacity: 1;"/><path class="point" transform="translate(360.01,234.88)" d="M3,0A3,3 0 1,1 0,-3A3,3 0 0,1 3,0Z" style="opacity: 1; stroke-width: 0px; fill: rgb(159, 197, 232); fill-opacity: 1;"/><path class="point" transform="translate(363.74,257.93)" d="M3,0A3,3 0 1,1 0,-3A3,3 0 0,1 3,0Z" style="opacity: 1; stroke-width: 0px; fill: rgb(159, 197, 232); fill-opacity: 1;"/><path class="point" transform="translate(367.47,191.06)" d="M3,0A3,3 0 1,1 0,-3A3,3 0 0,1 3,0Z" style="opacity: 1; stroke-width: 0px; fill: rgb(159, 197, 232); fill-opacity: 1;"/><path class="point" transform="translate(371.2,159.65)" d="M3,0A3,3 0 1,1 0,-3A3,3 0 0,1 3,0Z" style="opacity: 1; stroke-width: 0px; fill: rgb(159, 197, 232); fill-opacity: 1;"/><path class="point" transform="translate(374.92,166.49)" d="M3,0A3,3 0 1,1 0,-3A3,3 0 0,1 3,0Z" style="opacity: 1; stroke-width: 0px; fill: rgb(159, 197, 232); fill-opacity: 1;"/><path class="point" transform="translate(378.65,112.53)" d="M3,0A3,3 0 1,1 0,-3A3,3 0 0,1 3,0Z" style="opacity: 1; stroke-width: 0px; fill: rgb(159, 197, 232); fill-opacity: 1;"/><path class="point" transform="translate(382.38,114.05)" d="M3,0A3,3 0 1,1 0,-3A3,3 0 0,1 3,0Z" style="opacity: 1; stroke-width: 0px; fill: rgb(159, 197, 232); fill-opacity: 1;"/><path class="point" transform="translate(386.11,242.73)" d="M3,0A3,3 0 1,1 0,-3A3,3 0 0,1 3,0Z" style="opacity: 1; stroke-width: 0px; fill: rgb(159, 197, 232); fill-opacity: 1;"/><path class="point" transform="translate(389.84,253.88)" d="M3,0A3,3 0 1,1 0,-3A3,3 0 0,1 3,0Z" style="opacity: 1; stroke-width: 0px; fill: rgb(159, 197, 232); fill-opacity: 1;"/><path class="point" transform="translate(393.57,166.74)" d="M3,0A3,3 0 1,1 0,-3A3,3 0 0,1 3,0Z" style="opacity: 1; stroke-width: 0px; fill: rgb(159, 197, 232); fill-opacity: 1;"/><path class="point" transform="translate(397.29,163.45)" d="M3,0A3,3 0 1,1 0,-3A3,3 0 0,1 3,0Z" style="opacity: 1; stroke-width: 0px; fill: rgb(159, 197, 232); fill-opacity: 1;"/><path class="point" transform="translate(401.02,101.64)" d="M3,0A3,3 0 1,1 0,-3A3,3 0 0,1 3,0Z" style="opacity: 1; stroke-width: 0px; fill: rgb(159, 197, 232); fill-opacity: 1;"/><path class="point" transform="translate(404.75,157.62)" d="M3,0A3,3 0 1,1 0,-3A3,3 0 0,1 3,0Z" style="opacity: 1; stroke-width: 0px; fill: rgb(159, 197, 232); fill-opacity: 1;"/><path class="point" transform="translate(408.48,136.85)" d="M3,0A3,3 0 1,1 0,-3A3,3 0 0,1 3,0Z" style="opacity: 1; stroke-width: 0px; fill: rgb(159, 197, 232); fill-opacity: 1;"/><path class="point" transform="translate(412.21,219.17)" d="M3,0A3,3 0 1,1 0,-3A3,3 0 0,1 3,0Z" style="opacity: 1; stroke-width: 0px; fill: rgb(159, 197, 232); fill-opacity: 1;"/><path class="point" transform="translate(415.94,227.28)" d="M3,0A3,3 0 1,1 0,-3A3,3 0 0,1 3,0Z" style="opacity: 1; stroke-width: 0px; fill: rgb(159, 197, 232); fill-opacity: 1;"/><path class="point" transform="translate(419.66,168.26)" d="M3,0A3,3 0 1,1 0,-3A3,3 0 0,1 3,0Z" style="opacity: 1; stroke-width: 0px; fill: rgb(159, 197, 232); fill-opacity: 1;"/><path class="point" transform="translate(423.39,124.94)" d="M3,0A3,3 0 1,1 0,-3A3,3 0 0,1 3,0Z" style="opacity: 1; stroke-width: 0px; fill: rgb(159, 197, 232); fill-opacity: 1;"/><path class="point" transform="translate(427.12,167.5)" d="M3,0A3,3 0 1,1 0,-3A3,3 0 0,1 3,0Z" style="opacity: 1; stroke-width: 0px; fill: rgb(159, 197, 232); fill-opacity: 1;"/><path class="point" transform="translate(430.85,153.31)" d="M3,0A3,3 0 1,1 0,-3A3,3 0 0,1 3,0Z" style="opacity: 1; stroke-width: 0px; fill: rgb(159, 197, 232); fill-opacity: 1;"/><path class="point" transform="translate(434.58,106.45)" d="M3,0A3,3 0 1,1 0,-3A3,3 0 0,1 3,0Z" style="opacity: 1; stroke-width: 0px; fill: rgb(159, 197, 232); fill-opacity: 1;"/><path class="point" transform="translate(438.31,225)" d="M3,0A3,3 0 1,1 0,-3A3,3 0 0,1 3,0Z" style="opacity: 1; stroke-width: 0px; fill: rgb(159, 197, 232); fill-opacity: 1;"/><path class="point" transform="translate(442.03,234.12)" d="M3,0A3,3 0 1,1 0,-3A3,3 0 0,1 3,0Z" style="opacity: 1; stroke-width: 0px; fill: rgb(159, 197, 232); fill-opacity: 1;"/><path class="point" transform="translate(445.76,184.47)" d="M3,0A3,3 0 1,1 0,-3A3,3 0 0,1 3,0Z" style="opacity: 1; stroke-width: 0px; fill: rgb(159, 197, 232); fill-opacity: 1;"/><path class="point" transform="translate(449.49,56.55)" d="M3,0A3,3 0 1,1 0,-3A3,3 0 0,1 3,0Z" style="opacity: 1; stroke-width: 0px; fill: rgb(159, 197, 232); fill-opacity: 1;"/><path class="point" transform="translate(453.22,82.89)" d="M3,0A3,3 0 1,1 0,-3A3,3 0 0,1 3,0Z" style="opacity: 1; stroke-width: 0px; fill: rgb(159, 197, 232); fill-opacity: 1;"/><path class="point" transform="translate(456.95,126.72)" d="M3,0A3,3 0 1,1 0,-3A3,3 0 0,1 3,0Z" style="opacity: 1; stroke-width: 0px; fill: rgb(159, 197, 232); fill-opacity: 1;"/><path class="point" transform="translate(460.68,137.35)" d="M3,0A3,3 0 1,1 0,-3A3,3 0 0,1 3,0Z" style="opacity: 1; stroke-width: 0px; fill: rgb(159, 197, 232); fill-opacity: 1;"/><path class="point" transform="translate(464.4,217.91)" d="M3,0A3,3 0 1,1 0,-3A3,3 0 0,1 3,0Z" style="opacity: 1; stroke-width: 0px; fill: rgb(159, 197, 232); fill-opacity: 1;"/><path class="point" transform="translate(468.13,257.42)" d="M3,0A3,3 0 1,1 0,-3A3,3 0 0,1 3,0Z" style="opacity: 1; stroke-width: 0px; fill: rgb(159, 197, 232); fill-opacity: 1;"/><path class="point" transform="translate(471.86,197.64)" d="M3,0A3,3 0 1,1 0,-3A3,3 0 0,1 3,0Z" style="opacity: 1; stroke-width: 0px; fill: rgb(159, 197, 232); fill-opacity: 1;"/><path class="point" transform="translate(475.59,128.99)" d="M3,0A3,3 0 1,1 0,-3A3,3 0 0,1 3,0Z" style="opacity: 1; stroke-width: 0px; fill: rgb(159, 197, 232); fill-opacity: 1;"/><path class="point" transform="translate(479.32,131.27)" d="M3,0A3,3 0 1,1 0,-3A3,3 0 0,1 3,0Z" style="opacity: 1; stroke-width: 0px; fill: rgb(159, 197, 232); fill-opacity: 1;"/><path class="point" transform="translate(483.04,135.83)" d="M3,0A3,3 0 1,1 0,-3A3,3 0 0,1 3,0Z" style="opacity: 1; stroke-width: 0px; fill: rgb(159, 197, 232); fill-opacity: 1;"/><path class="point" transform="translate(486.77,151.54)" d="M3,0A3,3 0 1,1 0,-3A3,3 0 0,1 3,0Z" style="opacity: 1; stroke-width: 0px; fill: rgb(159, 197, 232); fill-opacity: 1;"/><path class="point" transform="translate(490.5,226.77)" d="M3,0A3,3 0 1,1 0,-3A3,3 0 0,1 3,0Z" style="opacity: 1; stroke-width: 0px; fill: rgb(159, 197, 232); fill-opacity: 1;"/><path class="point" transform="translate(494.23,249.57)" d="M3,0A3,3 0 1,1 0,-3A3,3 0 0,1 3,0Z" style="opacity: 1; stroke-width: 0px; fill: rgb(159, 197, 232); fill-opacity: 1;"/><path class="point" transform="translate(497.96,253.88)" d="M3,0A3,3 0 1,1 0,-3A3,3 0 0,1 3,0Z" style="opacity: 1; stroke-width: 0px; fill: rgb(159, 197, 232); fill-opacity: 1;"/><path class="point" transform="translate(501.69,157.87)" d="M3,0A3,3 0 1,1 0,-3A3,3 0 0,1 3,0Z" style="opacity: 1; stroke-width: 0px; fill: rgb(159, 197, 232); fill-opacity: 1;"/><path class="point" transform="translate(505.41,81.88)" d="M3,0A3,3 0 1,1 0,-3A3,3 0 0,1 3,0Z" style="opacity: 1; stroke-width: 0px; fill: rgb(159, 197, 232); fill-opacity: 1;"/><path class="point" transform="translate(509.14,123.17)" d="M3,0A3,3 0 1,1 0,-3A3,3 0 0,1 3,0Z" style="opacity: 1; stroke-width: 0px; fill: rgb(159, 197, 232); fill-opacity: 1;"/><path class="point" transform="translate(512.87,99.86)" d="M3,0A3,3 0 1,1 0,-3A3,3 0 0,1 3,0Z" style="opacity: 1; stroke-width: 0px; fill: rgb(159, 197, 232); fill-opacity: 1;"/><path class="point" transform="translate(516.6,215.37)" d="M3,0A3,3 0 1,1 0,-3A3,3 0 0,1 3,0Z" style="opacity: 1; stroke-width: 0px; fill: rgb(159, 197, 232); fill-opacity: 1;"/><path class="point" transform="translate(520.33,264.52)" d="M3,0A3,3 0 1,1 0,-3A3,3 0 0,1 3,0Z" style="opacity: 1; stroke-width: 0px; fill: rgb(159, 197, 232); fill-opacity: 1;"/><path class="point" transform="translate(524.06,169.52)" d="M3,0A3,3 0 1,1 0,-3A3,3 0 0,1 3,0Z" style="opacity: 1; stroke-width: 0px; fill: rgb(159, 197, 232); fill-opacity: 1;"/><path class="point" transform="translate(527.78,157.87)" d="M3,0A3,3 0 1,1 0,-3A3,3 0 0,1 3,0Z" style="opacity: 1; stroke-width: 0px; fill: rgb(159, 197, 232); fill-opacity: 1;"/><path class="point" transform="translate(531.51,163.19)" d="M3,0A3,3 0 1,1 0,-3A3,3 0 0,1 3,0Z" style="opacity: 1; stroke-width: 0px; fill: rgb(159, 197, 232); fill-opacity: 1;"/><path class="point" transform="translate(535.24,116.84)" d="M3,0A3,3 0 1,1 0,-3A3,3 0 0,1 3,0Z" style="opacity: 1; stroke-width: 0px; fill: rgb(159, 197, 232); fill-opacity: 1;"/><path class="point" transform="translate(538.97,138.11)" d="M3,0A3,3 0 1,1 0,-3A3,3 0 0,1 3,0Z" style="opacity: 1; stroke-width: 0px; fill: rgb(159, 197, 232); fill-opacity: 1;"/><path class="point" transform="translate(542.7,236.15)" d="M3,0A3,3 0 1,1 0,-3A3,3 0 0,1 3,0Z" style="opacity: 1; stroke-width: 0px; fill: rgb(159, 197, 232); fill-opacity: 1;"/><path class="point" transform="translate(546.43,256.92)" d="M3,0A3,3 0 1,1 0,-3A3,3 0 0,1 3,0Z" style="opacity: 1; stroke-width: 0px; fill: rgb(159, 197, 232); fill-opacity: 1;"/><path class="point" transform="translate(550.15,172.56)" d="M3,0A3,3 0 1,1 0,-3A3,3 0 0,1 3,0Z" style="opacity: 1; stroke-width: 0px; fill: rgb(159, 197, 232); fill-opacity: 1;"/><path class="point" transform="translate(553.88,114.05)" d="M3,0A3,3 0 1,1 0,-3A3,3 0 0,1 3,0Z" style="opacity: 1; stroke-width: 0px; fill: rgb(159, 197, 232); fill-opacity: 1;"/><path class="point" transform="translate(557.61,111.01)" d="M3,0A3,3 0 1,1 0,-3A3,3 0 0,1 3,0Z" style="opacity: 1; stroke-width: 0px; fill: rgb(159, 197, 232); fill-opacity: 1;"/><path class="point" transform="translate(561.34,97.33)" d="M3,0A3,3 0 1,1 0,-3A3,3 0 0,1 3,0Z" style="opacity: 1; stroke-width: 0px; fill: rgb(159, 197, 232); fill-opacity: 1;"/><path class="point" transform="translate(565.07,149.01)" d="M3,0A3,3 0 1,1 0,-3A3,3 0 0,1 3,0Z" style="opacity: 1; stroke-width: 0px; fill: rgb(159, 197, 232); fill-opacity: 1;"/><path class="point" transform="translate(568.8,203.72)" d="M3,0A3,3 0 1,1 0,-3A3,3 0 0,1 3,0Z" style="opacity: 1; stroke-width: 0px; fill: rgb(159, 197, 232); fill-opacity: 1;"/><path class="point" transform="translate(572.52,233.11)" d="M3,0A3,3 0 1,1 0,-3A3,3 0 0,1 3,0Z" style="opacity: 1; stroke-width: 0px; fill: rgb(159, 197, 232); fill-opacity: 1;"/><path class="point" transform="translate(576.25,157.11)" d="M3,0A3,3 0 1,1 0,-3A3,3 0 0,1 3,0Z" style="opacity: 1; stroke-width: 0px; fill: rgb(159, 197, 232); fill-opacity: 1;"/><path class="point" transform="translate(579.98,46.67)" d="M3,0A3,3 0 1,1 0,-3A3,3 0 0,1 3,0Z" style="opacity: 1; stroke-width: 0px; fill: rgb(159, 197, 232); fill-opacity: 1;"/><path class="point" transform="translate(583.71,113.54)" d="M3,0A3,3 0 1,1 0,-3A3,3 0 0,1 3,0Z" style="opacity: 1; stroke-width: 0px; fill: rgb(159, 197, 232); fill-opacity: 1;"/><path class="point" transform="translate(587.44,54.27)" d="M3,0A3,3 0 1,1 0,-3A3,3 0 0,1 3,0Z" style="opacity: 1; stroke-width: 0px; fill: rgb(159, 197, 232); fill-opacity: 1;"/><path class="point" transform="translate(591.17,92.52)" d="M3,0A3,3 0 1,1 0,-3A3,3 0 0,1 3,0Z" style="opacity: 1; stroke-width: 0px; fill: rgb(159, 197, 232); fill-opacity: 1;"/><path class="point" transform="translate(594.89,215.37)" d="M3,0A3,3 0 1,1 0,-3A3,3 0 0,1 3,0Z" style="opacity: 1; stroke-width: 0px; fill: rgb(159, 197, 232); fill-opacity: 1;"/><path class="point" transform="translate(598.62,171.55)" d="M3,0A3,3 0 1,1 0,-3A3,3 0 0,1 3,0Z" style="opacity: 1; stroke-width: 0px; fill: rgb(159, 197, 232); fill-opacity: 1;"/><path class="point" transform="translate(602.35,148.25)" d="M3,0A3,3 0 1,1 0,-3A3,3 0 0,1 3,0Z" style="opacity: 1; stroke-width: 0px; fill: rgb(159, 197, 232); fill-opacity: 1;"/></g><g class="text"/></g><g class="trace scatter trace187cfb" style="stroke-miterlimit: 2; opacity: 1;"><g class="fills"/><g class="errorbars"/><g class="lines"/><g class="points"><path class="point" transform="translate(121.4,22.35)" d="M6,0A6,6 0 1,1 0,-6A6,6 0 0,1 6,0Z" style="opacity: 1; stroke-width: 0px; fill: rgb(0, 128, 0); fill-opacity: 1;"/></g><g class="text"><g class="textpoint" transform="translate(0,-12.5)"><text x="121.4" y="22.35" text-anchor="middle" style="font-family: Cambria; font-size: 16px; fill: rgb(42, 63, 95); fill-opacity: 1; white-space: pre;">🔺 Peak</text></g></g></g><g class="trace scatter trace184409" style="stroke-miterlimit: 2; opacity: 1;"><g class="fills"/><g class="errorbars"/><g class="lines"/><g class="points"><path class="point" transform="translate(132.59,274.65)" d="M6,0A6,6 0 1,1 0,-6A6,6 0 0,1 6,0Z" style="opacity: 1; stroke-width: 0px; fill: rgb(255, 0, 0); fill-opacity: 1;"/></g><g class="text"><g class="textpoint" transform="translate(0,20.5)"><text x="132.59" y="274.65" text-anchor="middle" style="font-family: Cambria; font-size: 16px; fill: rgb(42, 63, 95); fill-opacity: 1; white-space: pre;">🔻 Lowest</text></g></g></g></g></g></g><path class="xlines-above crisp" d="M84,398H724" style="fill: none; stroke-width: 2px; stroke: rgb(0, 0, 0); stroke-opacity: 1;"/><path class="ylines-above crisp" d="M85,100V397" style="fill: none; stroke-width: 2px; stroke: rgb(0, 0, 0); stroke-opacity: 1;"/><g class="overlines-above"/><g class="xaxislayer-above"><g class="xtick"><text text-anchor="end" x="0" y="418.2" transform="translate(121.65,0) rotate(-30,0,410.2)" style="font-family: Cambria; font-size: 16px; fill: rgb(42, 63, 95); fill-opacity: 1; white-space: pre; opacity: 1;">May 2024</text></g><g class="xtick"><text text-anchor="end" x="0" y="418.2" style="font-family: Cambria; font-size: 16px; fill: rgb(42, 63, 95); fill-opacity: 1; white-space: pre; opacity: 1;" transform="translate(237.23,0) rotate(-30,0,410.2)">Jun 2024</text></g><g class="xtick"><text text-anchor="end" x="0" y="418.2" style="font-family: Cambria; font-size: 16px; fill: rgb(42, 63, 95); fill-opacity: 1; white-space: pre; opacity: 1;" transform="translate(349.08,0) rotate(-30,0,410.2)">Jul 2024</text></g><g class="xtick"><text text-anchor="end" x="0" y="418.2" style="font-family: Cambria; font-size: 16px; fill: rgb(42, 63, 95); fill-opacity: 1; white-space: pre; opacity: 1;" transform="translate(464.65,0) rotate(-30,0,410.2)">Aug 2024</text></g><g class="xtick"><text text-anchor="end" x="0" y="418.2" style="font-family: Cambria; font-size: 16px; fill: rgb(42, 63, 95); fill-opacity: 1; white-space: pre; opacity: 1;" transform="translate(580.23,0) rotate(-30,0,410.2)">Sep 2024</text></g><g class="xtick"><text text-anchor="end" x="0" y="418.2" style="font-family: Cambria; font-size: 16px; fill: rgb(42, 63, 95); fill-opacity: 1; white-space: pre; opacity: 1;" transform="translate(692.08,0) rotate(-30,0,410.2)">Oct 2024</text></g></g><g class="yaxislayer-above"><g class="ytick"><text text-anchor="end" x="80.8" y="5.6" transform="translate(0,388.33)" style="font-family: Cambria; font-size: 16px; fill: rgb(42, 63, 95); fill-opacity: 1; white-space: pre; opacity: 1;">0</text></g><g class="ytick"><text text-anchor="end" x="80.8" y="5.6" style="font-family: Cambria; font-size: 16px; fill: rgb(42, 63, 95); fill-opacity: 1; white-space: pre; opacity: 1;" transform="translate(0,337.66999999999996)">200</text></g><g class="ytick"><text text-anchor="end" x="80.8" y="5.6" style="font-family: Cambria; font-size: 16px; fill: rgb(42, 63, 95); fill-opacity: 1; white-space: pre; opacity: 1;" transform="translate(0,287)">400</text></g><g class="ytick"><text text-anchor="end" x="80.8" y="5.6" style="font-family: Cambria; font-size: 16px; fill: rgb(42, 63, 95); fill-opacity: 1; white-space: pre; opacity: 1;" transform="translate(0,236.34)">600</text></g><g class="ytick"><text text-anchor="end" x="80.8" y="5.6" style="font-family: Cambria; font-size: 16px; fill: rgb(42, 63, 95); fill-opacity: 1; white-space: pre; opacity: 1;" transform="translate(0,185.68)">800</text></g><g class="ytick"><text text-anchor="end" x="80.8" y="5.6" style="font-family: Cambria; font-size: 16px; fill: rgb(42, 63, 95); fill-opacity: 1; white-space: pre; opacity: 1;" transform="translate(0,135.02)">1000</text></g></g><g class="overaxes-above"/></g></g><g class="polarlayer"/><g class="smithlayer"/><g class="ternarylayer"/><g class="geolayer"/><g class="funnelarealayer"/><g class="pielayer"/><g class="iciclelayer"/><g class="treemaplayer"/><g class="sunburstlayer"/><g class="glimages"/><defs id="topdefs-0f04d0"><g class="clips"/><clipPath id="legend0f04d0"><rect width="101" height="58" x="0" y="0"/></clipPath></defs><g class="layer-above"><g class="imagelayer"/><g class="shapelayer"><g class="shape-group" data-index="0" clip-path="url(#clip0f04d0x)"><path data-index="0" fill-rule="evenodd" d="M121.65,397L121.65,100" style="opacity: 1; stroke: rgb(128, 128, 128); stroke-opacity: 1; fill: rgb(0, 0, 0); fill-opacity: 0; stroke-dasharray: 3px, 3px; stroke-width: 1px;"/></g><g class="shape-group" data-index="1" clip-path="url(#clip0f04d0x)"><path data-index="1" fill-rule="evenodd" d="M237.23,397L237.23,100" style="opacity: 1; stroke: rgb(128, 128, 128); stroke-opacity: 1; fill: rgb(0, 0, 0); fill-opacity: 0; stroke-dasharray: 3px, 3px; stroke-width: 1px;"/></g><g class="shape-group" data-index="2" clip-path="url(#clip0f04d0x)"><path data-index="2" fill-rule="evenodd" d="M349.08,397L349.08,100" style="opacity: 1; stroke: rgb(128, 128, 128); stroke-opacity: 1; fill: rgb(0, 0, 0); fill-opacity: 0; stroke-dasharray: 3px, 3px; stroke-width: 1px;"/></g><g class="shape-group" data-index="3" clip-path="url(#clip0f04d0x)"><path data-index="3" fill-rule="evenodd" d="M464.65,397L464.65,100" style="opacity: 1; stroke: rgb(128, 128, 128); stroke-opacity: 1; fill: rgb(0, 0, 0); fill-opacity: 0; stroke-dasharray: 3px, 3px; stroke-width: 1px;"/></g><g class="shape-group" data-index="4" clip-path="url(#clip0f04d0x)"><path data-index="4" fill-rule="evenodd" d="M580.23,397L580.23,100" style="opacity: 1; stroke: rgb(128, 128, 128); stroke-opacity: 1; fill: rgb(0, 0, 0); fill-opacity: 0; stroke-dasharray: 3px, 3px; stroke-width: 1px;"/></g></g></g><g class="infolayer"><g class="legend" pointer-events="all" transform="translate(736.76,100)"><rect class="bg" shape-rendering="crispEdges" width="101" height="58" x="0" y="0" style="stroke: rgb(68, 68, 68); stroke-opacity: 1; fill: rgb(255, 255, 255); fill-opacity: 1; stroke-width: 0px;"/><g class="scrollbox" transform="" clip-path="url(#legend0f04d0)"><g class="groups"><g class="traces" transform="translate(0,16.9)" style="opacity: 1;"><text class="legendtext" text-anchor="start" x="40" y="6.24" style="font-family: Cambria; font-size: 16px; fill: rgb(42, 63, 95); fill-opacity: 1; white-space: pre;">Peak</text><g class="layers" style="opacity: 1;"><g class="legendfill"/><g class="legendlines"/><g class="legendsymbols"><g class="legendpoints"><path class="scatterpts" transform="translate(20,0)" d="M6,0A6,6 0 1,1 0,-6A6,6 0 0,1 6,0Z" style="opacity: 1; stroke-width: 0px; fill: rgb(0, 128, 0); fill-opacity: 1;"/></g></g></g><rect class="legendtoggle" x="0" y="-11.9" width="96" height="23.8" style="fill: rgb(0, 0, 0); fill-opacity: 0;"/></g><g class="traces" transform="translate(0,40.7)" style="opacity: 1;"><text class="legendtext" text-anchor="start" x="40" y="6.24" style="font-family: Cambria; font-size: 16px; fill: rgb(42, 63, 95); fill-opacity: 1; white-space: pre;">Lowest</text><g class="layers" style="opacity: 1;"><g class="legendfill"/><g class="legendlines"/><g class="legendsymbols"><g class="legendpoints"><path class="scatterpts" transform="translate(20,0)" d="M6,0A6,6 0 1,1 0,-6A6,6 0 0,1 6,0Z" style="opacity: 1; stroke-width: 0px; fill: rgb(255, 0, 0); fill-opacity: 1;"/></g></g></g><rect class="legendtoggle" x="0" y="-11.9" width="96" height="23.8" style="fill: rgb(0, 0, 0); fill-opacity: 0;"/></g></g></g><rect class="scrollbar" rx="20" ry="3" width="0" height="0" x="0" y="0" style="fill: rgb(128, 139, 164); fill-opacity: 1;"/></g><g class="g-gtitle"><text class="gtitle" x="42.5" y="50" text-anchor="start" dy="0em" style="opacity: 1; font-family: Cambria; font-size: 26px; fill: rgb(42, 63, 95); fill-opacity: 1; white-space: pre;">Job Posting Trends Over Time</text></g><g class="g-xtitle"><text class="xtitle" x="405" y="486.8947265625" text-anchor="middle" style="opacity: 1; font-family: Cambria; font-size: 19px; fill: rgb(42, 63, 95); fill-opacity: 1; white-space: pre;">Month</text></g><g class="g-ytitle"><text class="ytitle" transform="rotate(-90,20.146874999999994,248.5)" x="20.146874999999994" y="248.5" text-anchor="middle" style="opacity: 1; font-family: Cambria; font-size: 19px; fill: rgb(42, 63, 95); fill-opacity: 1; white-space: pre;">Number of Job Postings</text></g></g></svg>