<svg class="main-svg" xmlns="http://www.w3.org/2000/svg" xmlns:xlink="http://www.w3.org/1999/xlink" width="1700" height="900" style="" viewBox="0 0 1700 900"><rect x="0" y="0" width="1700" height="900" style="fill: rgb(255, 255, 255); fill-opacity: 1;"/><defs id="defs-cda58b"><g class="clips"/><g class="gradients"/><g class="patterns"/></defs><g class="bglayer"/><g class="layer-below"><g class="imagelayer"/><g class="shapelayer"/></g><g class="cartesianlayer"/><g class="polarlayer"/><g class="smithlayer"/><g class="ternarylayer"/><g class="geolayer"/><g class="funnelarealayer"/><g class="pielayer"/><g class="iciclelayer"/><g class="treemaplayer"/><g class="sunburstlayer"/><g class="glimages"/><g class="sankey" transform="translate(80,100)matrix(1 0 0 1 0 0)" style="box-sizing: content-box; position: absolute; left: 0px; shape-rendering: geometricprecision; pointer-events: none;"><g class="sankey-links" style="fill: none;"><path class="sankey-link" d="M 35.128362161714804 686.241105327512  L 30.128362161714804 686.241105327512 A 10.264694184468034 10.264694184468034 0 0 0 19.86366797724677 696.50579951198 L 19.86366797724677 701.50579951198 A 10.264694184468034 10.264694184468034 0 0 0 30.128362161714804 711.7704936964479 L 70.1283621617148 711.7704936964479 A 10.264694184468034 10.264694184468034 0 0 0 80.39305634618283 701.50579951198 L 80.39305634618283 696.50579951198 A 10.264694184468034 10.264694184468034 0 0 0 70.1283621617148 686.241105327512 L 65.1283621617148 686.241105327512 L 65.1283621617148 686.50579951198 L 70.1283621617148 686.50579951198 A 10 10 0 0 1 80.1283621617148 696.50579951198 L 80.1283621617148 701.50579951198 A 10 10 0 0 1 70.1283621617148 711.50579951198 L 30.128362161714804 711.50579951198 A 10 10 0 0 1 20.128362161714804 701.50579951198 L 20.128362161714804 696.50579951198 A 10 10 0 0 1 30.128362161714804 686.50579951198 L 35.128362161714804 686.50579951198Z" style="stroke: rgb(0, 0, 0); stroke-opacity: 0.2; fill: rgb(0, 0, 0); fill-opacity: 0.2; stroke-width: 1; opacity: 1;"/><path class="sankey-link" d="M65.1283621617148,-2.842170943040401e-14C787.5641810808575,-2.842170943040401e-14 787.5641810808575,1.1368683772161603e-13 1510,1.1368683772161603e-13L1510,435.8671009419767C787.5641810808575,435.8671009419767 787.5641810808575,435.86710094197656 65.1283621617148,435.86710094197656Z" style="stroke: rgb(68, 68, 68); stroke-opacity: 1; fill: rgb(0, 0, 0); fill-opacity: 0.2; stroke-width: 0; opacity: 1;"/></g><g class="sankey-node-set" style="cursor: move;"><g class="sankey-node" transform="translate(35.128,686.241)" style="opacity: 1;"><rect class="node-rect" width="30" height="0.5" style="stroke-width: 0.5; stroke: rgb(0, 0, 0); stroke-opacity: 1; fill: rgb(0, 0, 255); fill-opacity: 1;"/><text class="node-label" data-notex="1" x="0" y="0" text-anchor="start" transform="translate(33.25,8.649999999999999)" style="cursor: default; font-family: 'Open Sans', verdana, arial, sans-serif; font-size: 24px; fill: rgb(42, 63, 95); fill-opacity: 1; text-shadow: rgb(255, 255, 255) 1px 1px 1px, rgb(255, 255, 255) -1px -1px 1px, rgb(255, 255, 255) 1px -1px 1px, rgb(255, 255, 255) -1px 1px 1px; white-space: pre;"></text></g><g class="sankey-node" transform="translate(35.128,0.000)" style="opacity: 1;"><rect class="node-rect" width="30" height="435.8671009419768" style="stroke-width: 0.5; stroke: rgb(0, 0, 0); stroke-opacity: 1; fill: rgb(0, 0, 255); fill-opacity: 1;"/><text class="node-label" data-notex="1" x="0" y="0" text-anchor="start" transform="translate(33.25,226.3335504709884)" style="cursor: default; font-family: 'Open Sans', verdana, arial, sans-serif; font-size: 24px; fill: rgb(42, 63, 95); fill-opacity: 1; text-shadow: rgb(255, 255, 255) 1px 1px 1px, rgb(255, 255, 255) -1px -1px 1px, rgb(255, 255, 255) 1px -1px 1px, rgb(255, 255, 255) -1px 1px 1px; white-space: pre;">Computer and Mathematical Occupations</text></g><g class="sankey-node" transform="translate(1510.000,0.000)" style="opacity: 1;"><rect class="node-rect" width="30" height="435.8671009419765" style="stroke-width: 0.5; stroke: rgb(0, 0, 0); stroke-opacity: 1; fill: rgb(0, 0, 255); fill-opacity: 1;"/><text class="node-label" data-notex="1" x="0" y="0" text-anchor="end" transform="translate(-3.25,226.33355047098826)" style="cursor: default; font-family: 'Open Sans', verdana, arial, sans-serif; font-size: 24px; fill: rgb(42, 63, 95); fill-opacity: 1; text-shadow: rgb(255, 255, 255) 1px 1px 1px, rgb(255, 255, 255) -1px -1px 1px, rgb(255, 255, 255) 1px -1px 1px, rgb(255, 255, 255) -1px 1px 1px; white-space: pre;">Mathematical Science Occupations</text></g></g></g><defs id="topdefs-cda58b"><g class="clips"/></defs><g class="layer-above"><g class="imagelayer"/><g class="shapelayer"/></g><g class="infolayer"><g class="g-gtitle"><text class="gtitle" x="85" y="50" text-anchor="start" dy="0em" style="opacity: 1; font-family: 'Open Sans', verdana, arial, sans-serif; font-size: 34px; fill: rgb(42, 63, 95); fill-opacity: 1; white-space: pre;">Career Pathway Trends (Sankey Diagram)</text></g><g class="first-render"/></g></svg>