<svg class="main-svg" xmlns="http://www.w3.org/2000/svg" xmlns:xlink="http://www.w3.org/1999/xlink" width="1000" height="500" style="" viewBox="0 0 1000 500"><rect x="0" y="0" width="1000" height="500" style="fill: rgb(255, 255, 255); fill-opacity: 1;"/><defs id="defs-b3d0c0"><g class="clips"><clipPath id="clipb3d0c0xyplot" class="plotclip"><rect width="785" height="297"/></clipPath><clipPath class="axesclip" id="clipb3d0c0x"><rect x="86" y="0" width="785" height="500"/></clipPath><clipPath class="axesclip" id="clipb3d0c0y"><rect x="0" y="100" width="1000" height="297"/></clipPath><clipPath class="axesclip" id="clipb3d0c0xy"><rect x="86" y="100" width="785" height="297"/></clipPath></g><g class="gradients"/><g class="patterns"/></defs><g class="bglayer"/><g class="layer-below"><g class="imagelayer"/><g class="shapelayer"/></g><g class="cartesianlayer"><g class="subplot xy"><g class="layer-subplot"><g class="shapelayer"/><g class="imagelayer"/></g><g class="minor-gridlayer"><g class="x"/><g class="y"/></g><g class="gridlayer"><g class="x"><path class="xgrid crisp" transform="translate(129,0)" d="M0,100v297" style="stroke: rgb(255, 255, 255); stroke-opacity: 1; stroke-width: 1px;"/><path class="xgrid crisp" transform="translate(271.56,0)" d="M0,100v297" style="stroke: rgb(255, 255, 255); stroke-opacity: 1; stroke-width: 1px;"/><path class="xgrid crisp" transform="translate(409.52,0)" d="M0,100v297" style="stroke: rgb(255, 255, 255); stroke-opacity: 1; stroke-width: 1px;"/><path class="xgrid crisp" transform="translate(552.0799999999999,0)" d="M0,100v297" style="stroke: rgb(255, 255, 255); stroke-opacity: 1; stroke-width: 1px;"/><path class="xgrid crisp" transform="translate(694.64,0)" d="M0,100v297" style="stroke: rgb(255, 255, 255); stroke-opacity: 1; stroke-width: 1px;"/><path class="xgrid crisp" transform="translate(832.6,0)" d="M0,100v297" style="stroke: rgb(255, 255, 255); stroke-opacity: 1; stroke-width: 1px;"/></g><g class="y"><path class="ygrid crisp" transform="translate(0,337.66999999999996)" d="M86,0h785" style="stroke: rgb(211, 211, 211); stroke-opacity: 1; stroke-width: 1px;"/><path class="ygrid crisp" transform="translate(0,287)" d="M86,0h785" style="stroke: rgb(211, 211, 211); stroke-opacity: 1; stroke-width: 1px;"/><path class="ygrid crisp" transform="translate(0,236.34)" d="M86,0h785" style="stroke: rgb(211, 211, 211); stroke-opacity: 1; stroke-width: 1px;"/><path class="ygrid crisp" transform="translate(0,185.68)" d="M86,0h785" style="stroke: rgb(211, 211, 211); stroke-opacity: 1; stroke-width: 1px;"/><path class="ygrid crisp" transform="translate(0,135.02)" d="M86,0h785" style="stroke: rgb(211, 211, 211); stroke-opacity: 1; stroke-width: 1px;"/></g></g><g class="zerolinelayer"><path class="yzl zl crisp" transform="translate(0,388.33)" d="M86,0h785" style="stroke: rgb(255, 255, 255); stroke-opacity: 1; stroke-width: 2px;"/></g><g class="layer-between"><g class="shapelayer"/><g class="imagelayer"/></g><path class="xlines-below"/><path class="ylines-below"/><g class="overlines-below"/><g class="xaxislayer-below"/><g class="yaxislayer-below"/><g class="overaxes-below"/><g class="overplot"><g class="xy" transform="translate(86,100)" clip-path="url(#clipb3d0c0xyplot)"><g class="scatterlayer mlayer"><g class="trace scatter trace6f3fd7" style="stroke-miterlimit: 2; opacity: 1;"><g class="fills"/><g class="errorbars"/><g class="lines"><path class="js-line" d="M43,160.15L47.6,177.63L52.2,116.33L56.8,143.18L61.39,248.05L65.99,245.52L70.59,157.62L75.19,169.02L79.79,131.53L84.39,136.59L88.99,137.86L93.59,108.98L98.18,212.33L102.78,190.55L107.38,143.43L111.98,147.23L116.58,171.3L121.18,136.59L125.78,245.27L130.37,194.86L134.97,126.46L139.57,128.23L144.17,173.07L148.77,22.35L153.37,172.06L157.97,232.09L162.57,274.65L171.76,159.65L176.36,157.37L180.96,67.44L185.56,148.75L190.16,188.02L194.76,212.08L199.36,173.58L203.95,105.94L208.55,136.85L213.15,181.18L217.75,193.34L222.35,237.41L226.95,182.19L231.55,104.17L236.14,108.98L240.74,83.4L245.34,114.81L249.94,233.61L254.54,258.18L259.14,171.8L263.74,132.29L268.34,178.14L272.93,163.19L277.53,112.78L282.13,233.61L286.73,261.98L291.33,181.18L295.93,128.23L300.53,101.64L305.12,55.03L309.72,127.73L314.32,233.87L318.92,260.72L323.52,165.73L328.12,142.42L332.72,147.49L337.32,247.29L341.91,189.28L346.51,252.11L351.11,270.6L355.71,180.42L360.31,123.68L369.51,163.45L374.11,160.91L378.7,236.15L383.3,264.52L387.9,186.5L392.5,147.49L397.1,115.57L401.7,164.71L406.3,179.91L410.89,225.76L415.49,264.26L420.09,180.67L424.69,124.44L429.29,153.57L433.89,165.73L438.49,162.94L443.09,234.88L447.68,257.93L452.28,191.06L456.88,159.65L461.48,166.49L466.08,112.53L470.68,114.05L475.28,242.73L479.88,253.88L484.47,166.74L489.07,163.45L493.67,101.64L498.27,157.62L502.87,136.85L507.47,219.17L512.07,227.28L516.66,168.26L521.26,124.94L525.86,167.5L530.46,153.31L535.06,106.45L539.66,225L544.26,234.12L548.86,184.47L553.45,56.55L558.05,82.89L562.65,126.72L567.25,137.35L571.85,217.91L576.45,257.42L585.64,128.99L590.24,131.27L594.84,135.83L599.44,151.54L604.04,226.77L608.64,249.57L613.24,253.88L617.84,157.87L622.43,81.88L627.03,123.17L631.63,99.86L636.23,215.37L640.83,264.52L645.43,169.52L650.03,157.87L654.63,163.19L659.22,116.84L663.82,138.11L668.42,236.15L673.02,256.92L677.62,172.56L682.22,114.05L686.82,111.01L691.41,97.33L700.61,203.72L705.21,233.11L709.81,157.11L714.41,46.67L719.01,113.54L723.61,54.27L728.2,92.52L732.8,215.37L737.4,171.55L742,148.25" style="vector-effect: none; fill: none; stroke: rgb(159, 197, 232); stroke-opacity: 1; stroke-width: 2px; opacity: 1;"/></g><g class="points"><path class="point" transform="translate(43,160.15)" d="M3,0A3,3 0 1,1 0,-3A3,3 0 0,1 3,0Z" style="opacity: 1; stroke-width: 0px; fill: rgb(159, 197, 232); fill-opacity: 1;"/><path class="point" transform="translate(47.6,177.63)" d="M3,0A3,3 0 1,1 0,-3A3,3 0 0,1 3,0Z" style="opacity: 1; stroke-width: 0px; fill: rgb(159, 197, 232); fill-opacity: 1;"/><path class="point" transform="translate(52.2,116.33)" d="M3,0A3,3 0 1,1 0,-3A3,3 0 0,1 3,0Z" style="opacity: 1; stroke-width: 0px; fill: rgb(159, 197, 232); fill-opacity: 1;"/><path class="point" transform="translate(56.8,143.18)" d="M3,0A3,3 0 1,1 0,-3A3,3 0 0,1 3,0Z" style="opacity: 1; stroke-width: 0px; fill: rgb(159, 197, 232); fill-opacity: 1;"/><path class="point" transform="translate(61.39,248.05)" d="M3,0A3,3 0 1,1 0,-3A3,3 0 0,1 3,0Z" style="opacity: 1; stroke-width: 0px; fill: rgb(159, 197, 232); fill-opacity: 1;"/><path class="point" transform="translate(65.99,245.52)" d="M3,0A3,3 0 1,1 0,-3A3,3 0 0,1 3,0Z" style="opacity: 1; stroke-width: 0px; fill: rgb(159, 197, 232); fill-opacity: 1;"/><path class="point" transform="translate(70.59,157.62)" d="M3,0A3,3 0 1,1 0,-3A3,3 0 0,1 3,0Z" style="opacity: 1; stroke-width: 0px; fill: rgb(159, 197, 232); fill-opacity: 1;"/><path class="point" transform="translate(75.19,169.02)" d="M3,0A3,3 0 1,1 0,-3A3,3 0 0,1 3,0Z" style="opacity: 1; stroke-width: 0px; fill: rgb(159, 197, 232); fill-opacity: 1;"/><path class="point" transform="translate(79.79,131.53)" d="M3,0A3,3 0 1,1 0,-3A3,3 0 0,1 3,0Z" style="opacity: 1; stroke-width: 0px; fill: rgb(159, 197, 232); fill-opacity: 1;"/><path class="point" transform="translate(84.39,136.59)" d="M3,0A3,3 0 1,1 0,-3A3,3 0 0,1 3,0Z" style="opacity: 1; stroke-width: 0px; fill: rgb(159, 197, 232); fill-opacity: 1;"/><path class="point" transform="translate(88.99,137.86)" d="M3,0A3,3 0 1,1 0,-3A3,3 0 0,1 3,0Z" style="opacity: 1; stroke-width: 0px; fill: rgb(159, 197, 232); fill-opacity: 1;"/><path class="point" transform="translate(93.59,108.98)" d="M3,0A3,3 0 1,1 0,-3A3,3 0 0,1 3,0Z" style="opacity: 1; stroke-width: 0px; fill: rgb(159, 197, 232); fill-opacity: 1;"/><path class="point" transform="translate(98.18,212.33)" d="M3,0A3,3 0 1,1 0,-3A3,3 0 0,1 3,0Z" style="opacity: 1; stroke-width: 0px; fill: rgb(159, 197, 232); fill-opacity: 1;"/><path class="point" transform="translate(102.78,190.55)" d="M3,0A3,3 0 1,1 0,-3A3,3 0 0,1 3,0Z" style="opacity: 1; stroke-width: 0px; fill: rgb(159, 197, 232); fill-opacity: 1;"/><path class="point" transform="translate(107.38,143.43)" d="M3,0A3,3 0 1,1 0,-3A3,3 0 0,1 3,0Z" style="opacity: 1; stroke-width: 0px; fill: rgb(159, 197, 232); fill-opacity: 1;"/><path class="point" transform="translate(111.98,147.23)" d="M3,0A3,3 0 1,1 0,-3A3,3 0 0,1 3,0Z" style="opacity: 1; stroke-width: 0px; fill: rgb(159, 197, 232); fill-opacity: 1;"/><path class="point" transform="translate(116.58,171.3)" d="M3,0A3,3 0 1,1 0,-3A3,3 0 0,1 3,0Z" style="opacity: 1; stroke-width: 0px; fill: rgb(159, 197, 232); fill-opacity: 1;"/><path class="point" transform="translate(121.18,136.59)" d="M3,0A3,3 0 1,1 0,-3A3,3 0 0,1 3,0Z" style="opacity: 1; stroke-width: 0px; fill: rgb(159, 197, 232); fill-opacity: 1;"/><path class="point" transform="translate(125.78,245.27)" d="M3,0A3,3 0 1,1 0,-3A3,3 0 0,1 3,0Z" style="opacity: 1; stroke-width: 0px; fill: rgb(159, 197, 232); fill-opacity: 1;"/><path class="point" transform="translate(130.37,194.86)" d="M3,0A3,3 0 1,1 0,-3A3,3 0 0,1 3,0Z" style="opacity: 1; stroke-width: 0px; fill: rgb(159, 197, 232); fill-opacity: 1;"/><path class="point" transform="translate(134.97,126.46)" d="M3,0A3,3 0 1,1 0,-3A3,3 0 0,1 3,0Z" style="opacity: 1; stroke-width: 0px; fill: rgb(159, 197, 232); fill-opacity: 1;"/><path class="point" transform="translate(139.57,128.23)" d="M3,0A3,3 0 1,1 0,-3A3,3 0 0,1 3,0Z" style="opacity: 1; stroke-width: 0px; fill: rgb(159, 197, 232); fill-opacity: 1;"/><path class="point" transform="translate(144.17,173.07)" d="M3,0A3,3 0 1,1 0,-3A3,3 0 0,1 3,0Z" style="opacity: 1; stroke-width: 0px; fill: rgb(159, 197, 232); fill-opacity: 1;"/><path class="point" transform="translate(148.77,22.35)" d="M3,0A3,3 0 1,1 0,-3A3,3 0 0,1 3,0Z" style="opacity: 1; stroke-width: 0px; fill: rgb(159, 197, 232); fill-opacity: 1;"/><path class="point" transform="translate(153.37,172.06)" d="M3,0A3,3 0 1,1 0,-3A3,3 0 0,1 3,0Z" style="opacity: 1; stroke-width: 0px; fill: rgb(159, 197, 232); fill-opacity: 1;"/><path class="point" transform="translate(157.97,232.09)" d="M3,0A3,3 0 1,1 0,-3A3,3 0 0,1 3,0Z" style="opacity: 1; stroke-width: 0px; fill: rgb(159, 197, 232); fill-opacity: 1;"/><path class="point" transform="translate(162.57,274.65)" d="M3,0A3,3 0 1,1 0,-3A3,3 0 0,1 3,0Z" style="opacity: 1; stroke-width: 0px; fill: rgb(159, 197, 232); fill-opacity: 1;"/><path class="point" transform="translate(167.16,217.4)" d="M3,0A3,3 0 1,1 0,-3A3,3 0 0,1 3,0Z" style="opacity: 1; stroke-width: 0px; fill: rgb(159, 197, 232); fill-opacity: 1;"/><path class="point" transform="translate(171.76,159.65)" d="M3,0A3,3 0 1,1 0,-3A3,3 0 0,1 3,0Z" style="opacity: 1; stroke-width: 0px; fill: rgb(159, 197, 232); fill-opacity: 1;"/><path class="point" transform="translate(176.36,157.37)" d="M3,0A3,3 0 1,1 0,-3A3,3 0 0,1 3,0Z" style="opacity: 1; stroke-width: 0px; fill: rgb(159, 197, 232); fill-opacity: 1;"/><path class="point" transform="translate(180.96,67.44)" d="M3,0A3,3 0 1,1 0,-3A3,3 0 0,1 3,0Z" style="opacity: 1; stroke-width: 0px; fill: rgb(159, 197, 232); fill-opacity: 1;"/><path class="point" transform="translate(185.56,148.75)" d="M3,0A3,3 0 1,1 0,-3A3,3 0 0,1 3,0Z" style="opacity: 1; stroke-width: 0px; fill: rgb(159, 197, 232); fill-opacity: 1;"/><path class="point" transform="translate(190.16,188.02)" d="M3,0A3,3 0 1,1 0,-3A3,3 0 0,1 3,0Z" style="opacity: 1; stroke-width: 0px; fill: rgb(159, 197, 232); fill-opacity: 1;"/><path class="point" transform="translate(194.76,212.08)" d="M3,0A3,3 0 1,1 0,-3A3,3 0 0,1 3,0Z" style="opacity: 1; stroke-width: 0px; fill: rgb(159, 197, 232); fill-opacity: 1;"/><path class="point" transform="translate(199.36,173.58)" d="M3,0A3,3 0 1,1 0,-3A3,3 0 0,1 3,0Z" style="opacity: 1; stroke-width: 0px; fill: rgb(159, 197, 232); fill-opacity: 1;"/><path class="point" transform="translate(203.95,105.94)" d="M3,0A3,3 0 1,1 0,-3A3,3 0 0,1 3,0Z" style="opacity: 1; stroke-width: 0px; fill: rgb(159, 197, 232); fill-opacity: 1;"/><path class="point" transform="translate(208.55,136.85)" d="M3,0A3,3 0 1,1 0,-3A3,3 0 0,1 3,0Z" style="opacity: 1; stroke-width: 0px; fill: rgb(159, 197, 232); fill-opacity: 1;"/><path class="point" transform="translate(213.15,181.18)" d="M3,0A3,3 0 1,1 0,-3A3,3 0 0,1 3,0Z" style="opacity: 1; stroke-width: 0px; fill: rgb(159, 197, 232); fill-opacity: 1;"/><path class="point" transform="translate(217.75,193.34)" d="M3,0A3,3 0 1,1 0,-3A3,3 0 0,1 3,0Z" style="opacity: 1; stroke-width: 0px; fill: rgb(159, 197, 232); fill-opacity: 1;"/><path class="point" transform="translate(222.35,237.41)" d="M3,0A3,3 0 1,1 0,-3A3,3 0 0,1 3,0Z" style="opacity: 1; stroke-width: 0px; fill: rgb(159, 197, 232); fill-opacity: 1;"/><path class="point" transform="translate(226.95,182.19)" d="M3,0A3,3 0 1,1 0,-3A3,3 0 0,1 3,0Z" style="opacity: 1; stroke-width: 0px; fill: rgb(159, 197, 232); fill-opacity: 1;"/><path class="point" transform="translate(231.55,104.17)" d="M3,0A3,3 0 1,1 0,-3A3,3 0 0,1 3,0Z" style="opacity: 1; stroke-width: 0px; fill: rgb(159, 197, 232); fill-opacity: 1;"/><path class="point" transform="translate(236.14,108.98)" d="M3,0A3,3 0 1,1 0,-3A3,3 0 0,1 3,0Z" style="opacity: 1; stroke-width: 0px; fill: rgb(159, 197, 232); fill-opacity: 1;"/><path class="point" transform="translate(240.74,83.4)" d="M3,0A3,3 0 1,1 0,-3A3,3 0 0,1 3,0Z" style="opacity: 1; stroke-width: 0px; fill: rgb(159, 197, 232); fill-opacity: 1;"/><path class="point" transform="translate(245.34,114.81)" d="M3,0A3,3 0 1,1 0,-3A3,3 0 0,1 3,0Z" style="opacity: 1; stroke-width: 0px; fill: rgb(159, 197, 232); fill-opacity: 1;"/><path class="point" transform="translate(249.94,233.61)" d="M3,0A3,3 0 1,1 0,-3A3,3 0 0,1 3,0Z" style="opacity: 1; stroke-width: 0px; fill: rgb(159, 197, 232); fill-opacity: 1;"/><path class="point" transform="translate(254.54,258.18)" d="M3,0A3,3 0 1,1 0,-3A3,3 0 0,1 3,0Z" style="opacity: 1; stroke-width: 0px; fill: rgb(159, 197, 232); fill-opacity: 1;"/><path class="point" transform="translate(259.14,171.8)" d="M3,0A3,3 0 1,1 0,-3A3,3 0 0,1 3,0Z" style="opacity: 1; stroke-width: 0px; fill: rgb(159, 197, 232); fill-opacity: 1;"/><path class="point" transform="translate(263.74,132.29)" d="M3,0A3,3 0 1,1 0,-3A3,3 0 0,1 3,0Z" style="opacity: 1; stroke-width: 0px; fill: rgb(159, 197, 232); fill-opacity: 1;"/><path class="point" transform="translate(268.34,178.14)" d="M3,0A3,3 0 1,1 0,-3A3,3 0 0,1 3,0Z" style="opacity: 1; stroke-width: 0px; fill: rgb(159, 197, 232); fill-opacity: 1;"/><path class="point" transform="translate(272.93,163.19)" d="M3,0A3,3 0 1,1 0,-3A3,3 0 0,1 3,0Z" style="opacity: 1; stroke-width: 0px; fill: rgb(159, 197, 232); fill-opacity: 1;"/><path class="point" transform="translate(277.53,112.78)" d="M3,0A3,3 0 1,1 0,-3A3,3 0 0,1 3,0Z" style="opacity: 1; stroke-width: 0px; fill: rgb(159, 197, 232); fill-opacity: 1;"/><path class="point" transform="translate(282.13,233.61)" d="M3,0A3,3 0 1,1 0,-3A3,3 0 0,1 3,0Z" style="opacity: 1; stroke-width: 0px; fill: rgb(159, 197, 232); fill-opacity: 1;"/><path class="point" transform="translate(286.73,261.98)" d="M3,0A3,3 0 1,1 0,-3A3,3 0 0,1 3,0Z" style="opacity: 1; stroke-width: 0px; fill: rgb(159, 197, 232); fill-opacity: 1;"/><path class="point" transform="translate(291.33,181.18)" d="M3,0A3,3 0 1,1 0,-3A3,3 0 0,1 3,0Z" style="opacity: 1; stroke-width: 0px; fill: rgb(159, 197, 232); fill-opacity: 1;"/><path class="point" transform="translate(295.93,128.23)" d="M3,0A3,3 0 1,1 0,-3A3,3 0 0,1 3,0Z" style="opacity: 1; stroke-width: 0px; fill: rgb(159, 197, 232); fill-opacity: 1;"/><path class="point" transform="translate(300.53,101.64)" d="M3,0A3,3 0 1,1 0,-3A3,3 0 0,1 3,0Z" style="opacity: 1; stroke-width: 0px; fill: rgb(159, 197, 232); fill-opacity: 1;"/><path class="point" transform="translate(305.12,55.03)" d="M3,0A3,3 0 1,1 0,-3A3,3 0 0,1 3,0Z" style="opacity: 1; stroke-width: 0px; fill: rgb(159, 197, 232); fill-opacity: 1;"/><path class="point" transform="translate(309.72,127.73)" d="M3,0A3,3 0 1,1 0,-3A3,3 0 0,1 3,0Z" style="opacity: 1; stroke-width: 0px; fill: rgb(159, 197, 232); fill-opacity: 1;"/><path class="point" transform="translate(314.32,233.87)" d="M3,0A3,3 0 1,1 0,-3A3,3 0 0,1 3,0Z" style="opacity: 1; stroke-width: 0px; fill: rgb(159, 197, 232); fill-opacity: 1;"/><path class="point" transform="translate(318.92,260.72)" d="M3,0A3,3 0 1,1 0,-3A3,3 0 0,1 3,0Z" style="opacity: 1; stroke-width: 0px; fill: rgb(159, 197, 232); fill-opacity: 1;"/><path class="point" transform="translate(323.52,165.73)" d="M3,0A3,3 0 1,1 0,-3A3,3 0 0,1 3,0Z" style="opacity: 1; stroke-width: 0px; fill: rgb(159, 197, 232); fill-opacity: 1;"/><path class="point" transform="translate(328.12,142.42)" d="M3,0A3,3 0 1,1 0,-3A3,3 0 0,1 3,0Z" style="opacity: 1; stroke-width: 0px; fill: rgb(159, 197, 232); fill-opacity: 1;"/><path class="point" transform="translate(332.72,147.49)" d="M3,0A3,3 0 1,1 0,-3A3,3 0 0,1 3,0Z" style="opacity: 1; stroke-width: 0px; fill: rgb(159, 197, 232); fill-opacity: 1;"/><path class="point" transform="translate(337.32,247.29)" d="M3,0A3,3 0 1,1 0,-3A3,3 0 0,1 3,0Z" style="opacity: 1; stroke-width: 0px; fill: rgb(159, 197, 232); fill-opacity: 1;"/><path class="point" transform="translate(341.91,189.28)" d="M3,0A3,3 0 1,1 0,-3A3,3 0 0,1 3,0Z" style="opacity: 1; stroke-width: 0px; fill: rgb(159, 197, 232); fill-opacity: 1;"/><path class="point" transform="translate(346.51,252.11)" d="M3,0A3,3 0 1,1 0,-3A3,3 0 0,1 3,0Z" style="opacity: 1; stroke-width: 0px; fill: rgb(159, 197, 232); fill-opacity: 1;"/><path class="point" transform="translate(351.11,270.6)" d="M3,0A3,3 0 1,1 0,-3A3,3 0 0,1 3,0Z" style="opacity: 1; stroke-width: 0px; fill: rgb(159, 197, 232); fill-opacity: 1;"/><path class="point" transform="translate(355.71,180.42)" d="M3,0A3,3 0 1,1 0,-3A3,3 0 0,1 3,0Z" style="opacity: 1; stroke-width: 0px; fill: rgb(159, 197, 232); fill-opacity: 1;"/><path class="point" transform="translate(360.31,123.68)" d="M3,0A3,3 0 1,1 0,-3A3,3 0 0,1 3,0Z" style="opacity: 1; stroke-width: 0px; fill: rgb(159, 197, 232); fill-opacity: 1;"/><path class="point" transform="translate(364.91,144.45)" d="M3,0A3,3 0 1,1 0,-3A3,3 0 0,1 3,0Z" style="opacity: 1; stroke-width: 0px; fill: rgb(159, 197, 232); fill-opacity: 1;"/><path class="point" transform="translate(369.51,163.45)" d="M3,0A3,3 0 1,1 0,-3A3,3 0 0,1 3,0Z" style="opacity: 1; stroke-width: 0px; fill: rgb(159, 197, 232); fill-opacity: 1;"/><path class="point" transform="translate(374.11,160.91)" d="M3,0A3,3 0 1,1 0,-3A3,3 0 0,1 3,0Z" style="opacity: 1; stroke-width: 0px; fill: rgb(159, 197, 232); fill-opacity: 1;"/><path class="point" transform="translate(378.7,236.15)" d="M3,0A3,3 0 1,1 0,-3A3,3 0 0,1 3,0Z" style="opacity: 1; stroke-width: 0px; fill: rgb(159, 197, 232); fill-opacity: 1;"/><path class="point" transform="translate(383.3,264.52)" d="M3,0A3,3 0 1,1 0,-3A3,3 0 0,1 3,0Z" style="opacity: 1; stroke-width: 0px; fill: rgb(159, 197, 232); fill-opacity: 1;"/><path class="point" transform="translate(387.9,186.5)" d="M3,0A3,3 0 1,1 0,-3A3,3 0 0,1 3,0Z" style="opacity: 1; stroke-width: 0px; fill: rgb(159, 197, 232); fill-opacity: 1;"/><path class="point" transform="translate(392.5,147.49)" d="M3,0A3,3 0 1,1 0,-3A3,3 0 0,1 3,0Z" style="opacity: 1; stroke-width: 0px; fill: rgb(159, 197, 232); fill-opacity: 1;"/><path class="point" transform="translate(397.1,115.57)" d="M3,0A3,3 0 1,1 0,-3A3,3 0 0,1 3,0Z" style="opacity: 1; stroke-width: 0px; fill: rgb(159, 197, 232); fill-opacity: 1;"/><path class="point" transform="translate(401.7,164.71)" d="M3,0A3,3 0 1,1 0,-3A3,3 0 0,1 3,0Z" style="opacity: 1; stroke-width: 0px; fill: rgb(159, 197, 232); fill-opacity: 1;"/><path class="point" transform="translate(406.3,179.91)" d="M3,0A3,3 0 1,1 0,-3A3,3 0 0,1 3,0Z" style="opacity: 1; stroke-width: 0px; fill: rgb(159, 197, 232); fill-opacity: 1;"/><path class="point" transform="translate(410.89,225.76)" d="M3,0A3,3 0 1,1 0,-3A3,3 0 0,1 3,0Z" style="opacity: 1; stroke-width: 0px; fill: rgb(159, 197, 232); fill-opacity: 1;"/><path class="point" transform="translate(415.49,264.26)" d="M3,0A3,3 0 1,1 0,-3A3,3 0 0,1 3,0Z" style="opacity: 1; stroke-width: 0px; fill: rgb(159, 197, 232); fill-opacity: 1;"/><path class="point" transform="translate(420.09,180.67)" d="M3,0A3,3 0 1,1 0,-3A3,3 0 0,1 3,0Z" style="opacity: 1; stroke-width: 0px; fill: rgb(159, 197, 232); fill-opacity: 1;"/><path class="point" transform="translate(424.69,124.44)" d="M3,0A3,3 0 1,1 0,-3A3,3 0 0,1 3,0Z" style="opacity: 1; stroke-width: 0px; fill: rgb(159, 197, 232); fill-opacity: 1;"/><path class="point" transform="translate(429.29,153.57)" d="M3,0A3,3 0 1,1 0,-3A3,3 0 0,1 3,0Z" style="opacity: 1; stroke-width: 0px; fill: rgb(159, 197, 232); fill-opacity: 1;"/><path class="point" transform="translate(433.89,165.73)" d="M3,0A3,3 0 1,1 0,-3A3,3 0 0,1 3,0Z" style="opacity: 1; stroke-width: 0px; fill: rgb(159, 197, 232); fill-opacity: 1;"/><path class="point" transform="translate(438.49,162.94)" d="M3,0A3,3 0 1,1 0,-3A3,3 0 0,1 3,0Z" style="opacity: 1; stroke-width: 0px; fill: rgb(159, 197, 232); fill-opacity: 1;"/><path class="point" transform="translate(443.09,234.88)" d="M3,0A3,3 0 1,1 0,-3A3,3 0 0,1 3,0Z" style="opacity: 1; stroke-width: 0px; fill: rgb(159, 197, 232); fill-opacity: 1;"/><path class="point" transform="translate(447.68,257.93)" d="M3,0A3,3 0 1,1 0,-3A3,3 0 0,1 3,0Z" style="opacity: 1; stroke-width: 0px; fill: rgb(159, 197, 232); fill-opacity: 1;"/><path class="point" transform="translate(452.28,191.06)" d="M3,0A3,3 0 1,1 0,-3A3,3 0 0,1 3,0Z" style="opacity: 1; stroke-width: 0px; fill: rgb(159, 197, 232); fill-opacity: 1;"/><path class="point" transform="translate(456.88,159.65)" d="M3,0A3,3 0 1,1 0,-3A3,3 0 0,1 3,0Z" style="opacity: 1; stroke-width: 0px; fill: rgb(159, 197, 232); fill-opacity: 1;"/><path class="point" transform="translate(461.48,166.49)" d="M3,0A3,3 0 1,1 0,-3A3,3 0 0,1 3,0Z" style="opacity: 1; stroke-width: 0px; fill: rgb(159, 197, 232); fill-opacity: 1;"/><path class="point" transform="translate(466.08,112.53)" d="M3,0A3,3 0 1,1 0,-3A3,3 0 0,1 3,0Z" style="opacity: 1; stroke-width: 0px; fill: rgb(159, 197, 232); fill-opacity: 1;"/><path class="point" transform="translate(470.68,114.05)" d="M3,0A3,3 0 1,1 0,-3A3,3 0 0,1 3,0Z" style="opacity: 1; stroke-width: 0px; fill: rgb(159, 197, 232); fill-opacity: 1;"/><path class="point" transform="translate(475.28,242.73)" d="M3,0A3,3 0 1,1 0,-3A3,3 0 0,1 3,0Z" style="opacity: 1; stroke-width: 0px; fill: rgb(159, 197, 232); fill-opacity: 1;"/><path class="point" transform="translate(479.88,253.88)" d="M3,0A3,3 0 1,1 0,-3A3,3 0 0,1 3,0Z" style="opacity: 1; stroke-width: 0px; fill: rgb(159, 197, 232); fill-opacity: 1;"/><path class="point" transform="translate(484.47,166.74)" d="M3,0A3,3 0 1,1 0,-3A3,3 0 0,1 3,0Z" style="opacity: 1; stroke-width: 0px; fill: rgb(159, 197, 232); fill-opacity: 1;"/><path class="point" transform="translate(489.07,163.45)" d="M3,0A3,3 0 1,1 0,-3A3,3 0 0,1 3,0Z" style="opacity: 1; stroke-width: 0px; fill: rgb(159, 197, 232); fill-opacity: 1;"/><path class="point" transform="translate(493.67,101.64)" d="M3,0A3,3 0 1,1 0,-3A3,3 0 0,1 3,0Z" style="opacity: 1; stroke-width: 0px; fill: rgb(159, 197, 232); fill-opacity: 1;"/><path class="point" transform="translate(498.27,157.62)" d="M3,0A3,3 0 1,1 0,-3A3,3 0 0,1 3,0Z" style="opacity: 1; stroke-width: 0px; fill: rgb(159, 197, 232); fill-opacity: 1;"/><path class="point" transform="translate(502.87,136.85)" d="M3,0A3,3 0 1,1 0,-3A3,3 0 0,1 3,0Z" style="opacity: 1; stroke-width: 0px; fill: rgb(159, 197, 232); fill-opacity: 1;"/><path class="point" transform="translate(507.47,219.17)" d="M3,0A3,3 0 1,1 0,-3A3,3 0 0,1 3,0Z" style="opacity: 1; stroke-width: 0px; fill: rgb(159, 197, 232); fill-opacity: 1;"/><path class="point" transform="translate(512.07,227.28)" d="M3,0A3,3 0 1,1 0,-3A3,3 0 0,1 3,0Z" style="opacity: 1; stroke-width: 0px; fill: rgb(159, 197, 232); fill-opacity: 1;"/><path class="point" transform="translate(516.66,168.26)" d="M3,0A3,3 0 1,1 0,-3A3,3 0 0,1 3,0Z" style="opacity: 1; stroke-width: 0px; fill: rgb(159, 197, 232); fill-opacity: 1;"/><path class="point" transform="translate(521.26,124.94)" d="M3,0A3,3 0 1,1 0,-3A3,3 0 0,1 3,0Z" style="opacity: 1; stroke-width: 0px; fill: rgb(159, 197, 232); fill-opacity: 1;"/><path class="point" transform="translate(525.86,167.5)" d="M3,0A3,3 0 1,1 0,-3A3,3 0 0,1 3,0Z" style="opacity: 1; stroke-width: 0px; fill: rgb(159, 197, 232); fill-opacity: 1;"/><path class="point" transform="translate(530.46,153.31)" d="M3,0A3,3 0 1,1 0,-3A3,3 0 0,1 3,0Z" style="opacity: 1; stroke-width: 0px; fill: rgb(159, 197, 232); fill-opacity: 1;"/><path class="point" transform="translate(535.06,106.45)" d="M3,0A3,3 0 1,1 0,-3A3,3 0 0,1 3,0Z" style="opacity: 1; stroke-width: 0px; fill: rgb(159, 197, 232); fill-opacity: 1;"/><path class="point" transform="translate(539.66,225)" d="M3,0A3,3 0 1,1 0,-3A3,3 0 0,1 3,0Z" style="opacity: 1; stroke-width: 0px; fill: rgb(159, 197, 232); fill-opacity: 1;"/><path class="point" transform="translate(544.26,234.12)" d="M3,0A3,3 0 1,1 0,-3A3,3 0 0,1 3,0Z" style="opacity: 1; stroke-width: 0px; fill: rgb(159, 197, 232); fill-opacity: 1;"/><path class="point" transform="translate(548.86,184.47)" d="M3,0A3,3 0 1,1 0,-3A3,3 0 0,1 3,0Z" style="opacity: 1; stroke-width: 0px; fill: rgb(159, 197, 232); fill-opacity: 1;"/><path class="point" transform="translate(553.45,56.55)" d="M3,0A3,3 0 1,1 0,-3A3,3 0 0,1 3,0Z" style="opacity: 1; stroke-width: 0px; fill: rgb(159, 197, 232); fill-opacity: 1;"/><path class="point" transform="translate(558.05,82.89)" d="M3,0A3,3 0 1,1 0,-3A3,3 0 0,1 3,0Z" style="opacity: 1; stroke-width: 0px; fill: rgb(159, 197, 232); fill-opacity: 1;"/><path class="point" transform="translate(562.65,126.72)" d="M3,0A3,3 0 1,1 0,-3A3,3 0 0,1 3,0Z" style="opacity: 1; stroke-width: 0px; fill: rgb(159, 197, 232); fill-opacity: 1;"/><path class="point" transform="translate(567.25,137.35)" d="M3,0A3,3 0 1,1 0,-3A3,3 0 0,1 3,0Z" style="opacity: 1; stroke-width: 0px; fill: rgb(159, 197, 232); fill-opacity: 1;"/><path class="point" transform="translate(571.85,217.91)" d="M3,0A3,3 0 1,1 0,-3A3,3 0 0,1 3,0Z" style="opacity: 1; stroke-width: 0px; fill: rgb(159, 197, 232); fill-opacity: 1;"/><path class="point" transform="translate(576.45,257.42)" d="M3,0A3,3 0 1,1 0,-3A3,3 0 0,1 3,0Z" style="opacity: 1; stroke-width: 0px; fill: rgb(159, 197, 232); fill-opacity: 1;"/><path class="point" transform="translate(581.05,197.64)" d="M3,0A3,3 0 1,1 0,-3A3,3 0 0,1 3,0Z" style="opacity: 1; stroke-width: 0px; fill: rgb(159, 197, 232); fill-opacity: 1;"/><path class="point" transform="translate(585.64,128.99)" d="M3,0A3,3 0 1,1 0,-3A3,3 0 0,1 3,0Z" style="opacity: 1; stroke-width: 0px; fill: rgb(159, 197, 232); fill-opacity: 1;"/><path class="point" transform="translate(590.24,131.27)" d="M3,0A3,3 0 1,1 0,-3A3,3 0 0,1 3,0Z" style="opacity: 1; stroke-width: 0px; fill: rgb(159, 197, 232); fill-opacity: 1;"/><path class="point" transform="translate(594.84,135.83)" d="M3,0A3,3 0 1,1 0,-3A3,3 0 0,1 3,0Z" style="opacity: 1; stroke-width: 0px; fill: rgb(159, 197, 232); fill-opacity: 1;"/><path class="point" transform="translate(599.44,151.54)" d="M3,0A3,3 0 1,1 0,-3A3,3 0 0,1 3,0Z" style="opacity: 1; stroke-width: 0px; fill: rgb(159, 197, 232); fill-opacity: 1;"/><path class="point" transform="translate(604.04,226.77)" d="M3,0A3,3 0 1,1 0,-3A3,3 0 0,1 3,0Z" style="opacity: 1; stroke-width: 0px; fill: rgb(159, 197, 232); fill-opacity: 1;"/><path class="point" transform="translate(608.64,249.57)" d="M3,0A3,3 0 1,1 0,-3A3,3 0 0,1 3,0Z" style="opacity: 1; stroke-width: 0px; fill: rgb(159, 197, 232); fill-opacity: 1;"/><path class="point" transform="translate(613.24,253.88)" d="M3,0A3,3 0 1,1 0,-3A3,3 0 0,1 3,0Z" style="opacity: 1; stroke-width: 0px; fill: rgb(159, 197, 232); fill-opacity: 1;"/><path class="point" transform="translate(617.84,157.87)" d="M3,0A3,3 0 1,1 0,-3A3,3 0 0,1 3,0Z" style="opacity: 1; stroke-width: 0px; fill: rgb(159, 197, 232); fill-opacity: 1;"/><path class="point" transform="translate(622.43,81.88)" d="M3,0A3,3 0 1,1 0,-3A3,3 0 0,1 3,0Z" style="opacity: 1; stroke-width: 0px; fill: rgb(159, 197, 232); fill-opacity: 1;"/><path class="point" transform="translate(627.03,123.17)" d="M3,0A3,3 0 1,1 0,-3A3,3 0 0,1 3,0Z" style="opacity: 1; stroke-width: 0px; fill: rgb(159, 197, 232); fill-opacity: 1;"/><path class="point" transform="translate(631.63,99.86)" d="M3,0A3,3 0 1,1 0,-3A3,3 0 0,1 3,0Z" style="opacity: 1; stroke-width: 0px; fill: rgb(159, 197, 232); fill-opacity: 1;"/><path class="point" transform="translate(636.23,215.37)" d="M3,0A3,3 0 1,1 0,-3A3,3 0 0,1 3,0Z" style="opacity: 1; stroke-width: 0px; fill: rgb(159, 197, 232); fill-opacity: 1;"/><path class="point" transform="translate(640.83,264.52)" d="M3,0A3,3 0 1,1 0,-3A3,3 0 0,1 3,0Z" style="opacity: 1; stroke-width: 0px; fill: rgb(159, 197, 232); fill-opacity: 1;"/><path class="point" transform="translate(645.43,169.52)" d="M3,0A3,3 0 1,1 0,-3A3,3 0 0,1 3,0Z" style="opacity: 1; stroke-width: 0px; fill: rgb(159, 197, 232); fill-opacity: 1;"/><path class="point" transform="translate(650.03,157.87)" d="M3,0A3,3 0 1,1 0,-3A3,3 0 0,1 3,0Z" style="opacity: 1; stroke-width: 0px; fill: rgb(159, 197, 232); fill-opacity: 1;"/><path class="point" transform="translate(654.63,163.19)" d="M3,0A3,3 0 1,1 0,-3A3,3 0 0,1 3,0Z" style="opacity: 1; stroke-width: 0px; fill: rgb(159, 197, 232); fill-opacity: 1;"/><path class="point" transform="translate(659.22,116.84)" d="M3,0A3,3 0 1,1 0,-3A3,3 0 0,1 3,0Z" style="opacity: 1; stroke-width: 0px; fill: rgb(159, 197, 232); fill-opacity: 1;"/><path class="point" transform="translate(663.82,138.11)" d="M3,0A3,3 0 1,1 0,-3A3,3 0 0,1 3,0Z" style="opacity: 1; stroke-width: 0px; fill: rgb(159, 197, 232); fill-opacity: 1;"/><path class="point" transform="translate(668.42,236.15)" d="M3,0A3,3 0 1,1 0,-3A3,3 0 0,1 3,0Z" style="opacity: 1; stroke-width: 0px; fill: rgb(159, 197, 232); fill-opacity: 1;"/><path class="point" transform="translate(673.02,256.92)" d="M3,0A3,3 0 1,1 0,-3A3,3 0 0,1 3,0Z" style="opacity: 1; stroke-width: 0px; fill: rgb(159, 197, 232); fill-opacity: 1;"/><path class="point" transform="translate(677.62,172.56)" d="M3,0A3,3 0 1,1 0,-3A3,3 0 0,1 3,0Z" style="opacity: 1; stroke-width: 0px; fill: rgb(159, 197, 232); fill-opacity: 1;"/><path class="point" transform="translate(682.22,114.05)" d="M3,0A3,3 0 1,1 0,-3A3,3 0 0,1 3,0Z" style="opacity: 1; stroke-width: 0px; fill: rgb(159, 197, 232); fill-opacity: 1;"/><path class="point" transform="translate(686.82,111.01)" d="M3,0A3,3 0 1,1 0,-3A3,3 0 0,1 3,0Z" style="opacity: 1; stroke-width: 0px; fill: rgb(159, 197, 232); fill-opacity: 1;"/><path class="point" transform="translate(691.41,97.33)" d="M3,0A3,3 0 1,1 0,-3A3,3 0 0,1 3,0Z" style="opacity: 1; stroke-width: 0px; fill: rgb(159, 197, 232); fill-opacity: 1;"/><path class="point" transform="translate(696.01,149.01)" d="M3,0A3,3 0 1,1 0,-3A3,3 0 0,1 3,0Z" style="opacity: 1; stroke-width: 0px; fill: rgb(159, 197, 232); fill-opacity: 1;"/><path class="point" transform="translate(700.61,203.72)" d="M3,0A3,3 0 1,1 0,-3A3,3 0 0,1 3,0Z" style="opacity: 1; stroke-width: 0px; fill: rgb(159, 197, 232); fill-opacity: 1;"/><path class="point" transform="translate(705.21,233.11)" d="M3,0A3,3 0 1,1 0,-3A3,3 0 0,1 3,0Z" style="opacity: 1; stroke-width: 0px; fill: rgb(159, 197, 232); fill-opacity: 1;"/><path class="point" transform="translate(709.81,157.11)" d="M3,0A3,3 0 1,1 0,-3A3,3 0 0,1 3,0Z" style="opacity: 1; stroke-width: 0px; fill: rgb(159, 197, 232); fill-opacity: 1;"/><path class="point" transform="translate(714.41,46.67)" d="M3,0A3,3 0 1,1 0,-3A3,3 0 0,1 3,0Z" style="opacity: 1; stroke-width: 0px; fill: rgb(159, 197, 232); fill-opacity: 1;"/><path class="point" transform="translate(719.01,113.54)" d="M3,0A3,3 0 1,1 0,-3A3,3 0 0,1 3,0Z" style="opacity: 1; stroke-width: 0px; fill: rgb(159, 197, 232); fill-opacity: 1;"/><path class="point" transform="translate(723.61,54.27)" d="M3,0A3,3 0 1,1 0,-3A3,3 0 0,1 3,0Z" style="opacity: 1; stroke-width: 0px; fill: rgb(159, 197, 232); fill-opacity: 1;"/><path class="point" transform="translate(728.2,92.52)" d="M3,0A3,3 0 1,1 0,-3A3,3 0 0,1 3,0Z" style="opacity: 1; stroke-width: 0px; fill: rgb(159, 197, 232); fill-opacity: 1;"/><path class="point" transform="translate(732.8,215.37)" d="M3,0A3,3 0 1,1 0,-3A3,3 0 0,1 3,0Z" style="opacity: 1; stroke-width: 0px; fill: rgb(159, 197, 232); fill-opacity: 1;"/><path class="point" transform="translate(737.4,171.55)" d="M3,0A3,3 0 1,1 0,-3A3,3 0 0,1 3,0Z" style="opacity: 1; stroke-width: 0px; fill: rgb(159, 197, 232); fill-opacity: 1;"/><path class="point" transform="translate(742,148.25)" d="M3,0A3,3 0 1,1 0,-3A3,3 0 0,1 3,0Z" style="opacity: 1; stroke-width: 0px; fill: rgb(159, 197, 232); fill-opacity: 1;"/></g><g class="text"/></g><g class="trace scatter trace67b4d3" style="stroke-miterlimit: 2; opacity: 1;"><g class="fills"/><g class="errorbars"/><g class="lines"/><g class="points"><path class="point" transform="translate(148.77,22.35)" d="M6,0A6,6 0 1,1 0,-6A6,6 0 0,1 6,0Z" style="opacity: 1; stroke-width: 0px; fill: rgb(0, 128, 0); fill-opacity: 1;"/></g><g class="text"><g class="textpoint" transform="translate(0,-12.5)"><text x="148.77" y="22.35" text-anchor="middle" style="font-family: Cambria; font-size: 16px; fill: rgb(42, 63, 95); fill-opacity: 1; white-space: pre;">🔺 Peak</text></g></g></g><g class="trace scatter trace000ecc" style="stroke-miterlimit: 2; opacity: 1;"><g class="fills"/><g class="errorbars"/><g class="lines"/><g class="points"><path class="point" transform="translate(162.57,274.65)" d="M6,0A6,6 0 1,1 0,-6A6,6 0 0,1 6,0Z" style="opacity: 1; stroke-width: 0px; fill: rgb(255, 0, 0); fill-opacity: 1;"/></g><g class="text"><g class="textpoint" transform="translate(0,20.5)"><text x="162.57" y="274.65" text-anchor="middle" style="font-family: Cambria; font-size: 16px; fill: rgb(42, 63, 95); fill-opacity: 1; white-space: pre;">🔻 Lowest</text></g></g></g></g></g></g><path class="xlines-above crisp" d="M84,398H871" style="fill: none; stroke-width: 2px; stroke: rgb(0, 0, 0); stroke-opacity: 1;"/><path class="ylines-above crisp" d="M85,100V397" style="fill: none; stroke-width: 2px; stroke: rgb(0, 0, 0); stroke-opacity: 1;"/><g class="overlines-above"/><g class="xaxislayer-above"><g class="xtick"><text text-anchor="end" x="0" y="418.2" transform="translate(129,0) rotate(-30,0,410.2)" style="font-family: Cambria; font-size: 16px; fill: rgb(42, 63, 95); fill-opacity: 1; white-space: pre; opacity: 1;">May 2024</text></g><g class="xtick"><text text-anchor="end" x="0" y="418.2" style="font-family: Cambria; font-size: 16px; fill: rgb(42, 63, 95); fill-opacity: 1; white-space: pre; opacity: 1;" transform="translate(271.56,0) rotate(-30,0,410.2)">Jun 2024</text></g><g class="xtick"><text text-anchor="end" x="0" y="418.2" style="font-family: Cambria; font-size: 16px; fill: rgb(42, 63, 95); fill-opacity: 1; white-space: pre; opacity: 1;" transform="translate(409.52,0) rotate(-30,0,410.2)">Jul 2024</text></g><g class="xtick"><text text-anchor="end" x="0" y="418.2" style="font-family: Cambria; font-size: 16px; fill: rgb(42, 63, 95); fill-opacity: 1; white-space: pre; opacity: 1;" transform="translate(552.0799999999999,0) rotate(-30,0,410.2)">Aug 2024</text></g><g class="xtick"><text text-anchor="end" x="0" y="418.2" style="font-family: Cambria; font-size: 16px; fill: rgb(42, 63, 95); fill-opacity: 1; white-space: pre; opacity: 1;" transform="translate(694.64,0) rotate(-30,0,410.2)">Sep 2024</text></g><g class="xtick"><text text-anchor="end" x="0" y="418.2" style="font-family: Cambria; font-size: 16px; fill: rgb(42, 63, 95); fill-opacity: 1; white-space: pre; opacity: 1;" transform="translate(832.6,0) rotate(-30,0,410.2)">Oct 2024</text></g></g><g class="yaxislayer-above"><g class="ytick"><text text-anchor="end" x="80.8" y="5.6" transform="translate(0,388.33)" style="font-family: Cambria; font-size: 16px; fill: rgb(42, 63, 95); fill-opacity: 1; white-space: pre; opacity: 1;">0</text></g><g class="ytick"><text text-anchor="end" x="80.8" y="5.6" style="font-family: Cambria; font-size: 16px; fill: rgb(42, 63, 95); fill-opacity: 1; white-space: pre; opacity: 1;" transform="translate(0,337.66999999999996)">200</text></g><g class="ytick"><text text-anchor="end" x="80.8" y="5.6" style="font-family: Cambria; font-size: 16px; fill: rgb(42, 63, 95); fill-opacity: 1; white-space: pre; opacity: 1;" transform="translate(0,287)">400</text></g><g class="ytick"><text text-anchor="end" x="80.8" y="5.6" style="font-family: Cambria; font-size: 16px; fill: rgb(42, 63, 95); fill-opacity: 1; white-space: pre; opacity: 1;" transform="translate(0,236.34)">600</text></g><g class="ytick"><text text-anchor="end" x="80.8" y="5.6" style="font-family: Cambria; font-size: 16px; fill: rgb(42, 63, 95); fill-opacity: 1; white-space: pre; opacity: 1;" transform="translate(0,185.68)">800</text></g><g class="ytick"><text text-anchor="end" x="80.8" y="5.6" style="font-family: Cambria; font-size: 16px; fill: rgb(42, 63, 95); fill-opacity: 1; white-space: pre; opacity: 1;" transform="translate(0,135.02)">1000</text></g></g><g class="overaxes-above"/></g></g><g class="polarlayer"/><g class="smithlayer"/><g class="ternarylayer"/><g class="geolayer"/><g class="funnelarealayer"/><g class="pielayer"/><g class="iciclelayer"/><g class="treemaplayer"/><g class="sunburstlayer"/><g class="glimages"/><defs id="topdefs-b3d0c0"><g class="clips"/><clipPath id="legendb3d0c0"><rect width="101" height="58" x="0" y="0"/></clipPath></defs><g class="layer-above"><g class="imagelayer"/><g class="shapelayer"><g class="shape-group" data-index="0" clip-path="url(#clipb3d0c0x)"><path data-index="0" fill-rule="evenodd" d="M129,397L129,100" style="opacity: 1; stroke: rgb(128, 128, 128); stroke-opacity: 1; fill: rgb(0, 0, 0); fill-opacity: 0; stroke-dasharray: 3px, 3px; stroke-width: 1px;"/></g><g class="shape-group" data-index="1" clip-path="url(#clipb3d0c0x)"><path data-index="1" fill-rule="evenodd" d="M271.56,397L271.56,100" style="opacity: 1; stroke: rgb(128, 128, 128); stroke-opacity: 1; fill: rgb(0, 0, 0); fill-opacity: 0; stroke-dasharray: 3px, 3px; stroke-width: 1px;"/></g><g class="shape-group" data-index="2" clip-path="url(#clipb3d0c0x)"><path data-index="2" fill-rule="evenodd" d="M409.52,397L409.52,100" style="opacity: 1; stroke: rgb(128, 128, 128); stroke-opacity: 1; fill: rgb(0, 0, 0); fill-opacity: 0; stroke-dasharray: 3px, 3px; stroke-width: 1px;"/></g><g class="shape-group" data-index="3" clip-path="url(#clipb3d0c0x)"><path data-index="3" fill-rule="evenodd" d="M552.0799999999999,397L552.0799999999999,100" style="opacity: 1; stroke: rgb(128, 128, 128); stroke-opacity: 1; fill: rgb(0, 0, 0); fill-opacity: 0; stroke-dasharray: 3px, 3px; stroke-width: 1px;"/></g><g class="shape-group" data-index="4" clip-path="url(#clipb3d0c0x)"><path data-index="4" fill-rule="evenodd" d="M694.64,397L694.64,100" style="opacity: 1; stroke: rgb(128, 128, 128); stroke-opacity: 1; fill: rgb(0, 0, 0); fill-opacity: 0; stroke-dasharray: 3px, 3px; stroke-width: 1px;"/></g></g></g><g class="infolayer"><g class="legend" pointer-events="all" transform="translate(886.7,100)"><rect class="bg" shape-rendering="crispEdges" width="101" height="58" x="0" y="0" style="stroke: rgb(68, 68, 68); stroke-opacity: 1; fill: rgb(255, 255, 255); fill-opacity: 1; stroke-width: 0px;"/><g class="scrollbox" transform="" clip-path="url(#legendb3d0c0)"><g class="groups"><g class="traces" transform="translate(0,16.9)" style="opacity: 1;"><text class="legendtext" text-anchor="start" x="40" y="6.24" style="font-family: Cambria; font-size: 16px; fill: rgb(42, 63, 95); fill-opacity: 1; white-space: pre;">Peak</text><g class="layers" style="opacity: 1;"><g class="legendfill"/><g class="legendlines"/><g class="legendsymbols"><g class="legendpoints"><path class="scatterpts" transform="translate(20,0)" d="M6,0A6,6 0 1,1 0,-6A6,6 0 0,1 6,0Z" style="opacity: 1; stroke-width: 0px; fill: rgb(0, 128, 0); fill-opacity: 1;"/></g></g></g><rect class="legendtoggle" x="0" y="-11.9" width="96" height="23.8" style="fill: rgb(0, 0, 0); fill-opacity: 0;"/></g><g class="traces" transform="translate(0,40.7)" style="opacity: 1;"><text class="legendtext" text-anchor="start" x="40" y="6.24" style="font-family: Cambria; font-size: 16px; fill: rgb(42, 63, 95); fill-opacity: 1; white-space: pre;">Lowest</text><g class="layers" style="opacity: 1;"><g class="legendfill"/><g class="legendlines"/><g class="legendsymbols"><g class="legendpoints"><path class="scatterpts" transform="translate(20,0)" d="M6,0A6,6 0 1,1 0,-6A6,6 0 0,1 6,0Z" style="opacity: 1; stroke-width: 0px; fill: rgb(255, 0, 0); fill-opacity: 1;"/></g></g></g><rect class="legendtoggle" x="0" y="-11.9" width="96" height="23.8" style="fill: rgb(0, 0, 0); fill-opacity: 0;"/></g></g></g><rect class="scrollbar" rx="20" ry="3" width="0" height="0" x="0" y="0" style="fill: rgb(128, 139, 164); fill-opacity: 1;"/></g><g class="g-gtitle"><text class="gtitle" x="50" y="50" text-anchor="start" dy="0em" style="opacity: 1; font-family: Cambria; font-size: 26px; fill: rgb(42, 63, 95); fill-opacity: 1; white-space: pre;">Job Posting Trends Over Time</text></g><g class="g-xtitle"><text class="xtitle" x="478.5" y="486.8947265625" text-anchor="middle" style="opacity: 1; font-family: Cambria; font-size: 19px; fill: rgb(42, 63, 95); fill-opacity: 1; white-space: pre;">Month</text></g><g class="g-ytitle"><text class="ytitle" transform="rotate(-90,20.146874999999994,248.5)" x="20.146874999999994" y="248.5" text-anchor="middle" style="opacity: 1; font-family: Cambria; font-size: 19px; fill: rgb(42, 63, 95); fill-opacity: 1; white-space: pre;">Number of Job Postings</text></g></g></svg>