<svg class="main-svg" xmlns="http://www.w3.org/2000/svg" xmlns:xlink="http://www.w3.org/1999/xlink" width="1000" height="600" style="" viewBox="0 0 1000 600"><rect x="0" y="0" width="1000" height="600" style="fill: rgb(255, 255, 255); fill-opacity: 1;"/><defs id="defs-a4f911"><g class="clips"/><g class="gradients"/><g class="patterns"/></defs><g class="bglayer"/><g class="layer-below"><g class="imagelayer"/><g class="shapelayer"/></g><g class="cartesianlayer"/><g class="polarlayer"/><g class="smithlayer"/><g class="ternarylayer"/><g class="geolayer"/><g class="funnelarealayer"/><g class="pielayer"/><g class="iciclelayer"/><g class="treemaplayer"/><g class="sunburstlayer"/><g class="glimages"/><g class="sankey" transform="translate(80,100)matrix(1 0 0 1 0 0)" style="box-sizing: content-box; position: absolute; left: 0px; shape-rendering: geometricprecision; pointer-events: none;"><g class="sankey-links" style="fill: none;"><path class="sankey-link" d="M 35.07373996524042 387.4854624305236  L 30.07373996524042 387.4854624305236 A 10.144023756646533 10.144023756646533 0 0 0 19.929716208593888 397.6294861871702 L 19.929716208593888 402.62948618717013 A 10.144023756646533 10.144023756646533 0 0 0 30.07373996524042 412.7735099438167 L 70.07373996524042 412.7735099438167 A 10.144023756646533 10.144023756646533 0 0 0 80.21776372188695 402.62948618717013 L 80.21776372188695 397.6294861871702 A 10.144023756646533 10.144023756646533 0 0 0 70.07373996524042 387.4854624305236 L 65.07373996524042 387.4854624305236 L 65.07373996524042 387.6294861871702 L 70.07373996524042 387.6294861871702 A 10 10 0 0 1 80.07373996524042 397.6294861871702 L 80.07373996524042 402.62948618717013 A 10 10 0 0 1 70.07373996524042 412.62948618717013 L 30.07373996524042 412.62948618717013 A 10 10 0 0 1 20.07373996524042 402.62948618717013 L 20.07373996524042 397.6294861871702 A 10 10 0 0 1 30.07373996524042 387.6294861871702 L 35.07373996524042 387.6294861871702Z" style="stroke: rgb(0, 0, 0); stroke-opacity: 0.2; fill: rgb(0, 0, 0); fill-opacity: 0.2; stroke-width: 1; opacity: 1;"/><path class="sankey-link" d="M65.07373996524042,8.526512829121202e-14C437.5368699826202,8.526512829121202e-14 437.5368699826202,-2.842170943040401e-14 810,-2.842170943040401e-14L810,237.16130145608753C437.5368699826202,237.16130145608753 437.5368699826202,237.16130145608764 65.07373996524042,237.16130145608764Z" style="stroke: rgb(68, 68, 68); stroke-opacity: 1; fill: rgb(0, 0, 0); fill-opacity: 0.2; stroke-width: 0; opacity: 1;"/></g><g class="sankey-node-set" style="cursor: move;"><g class="sankey-node" transform="translate(35.074,387.485)" style="opacity: 1;"><rect class="node-rect" width="30" height="0.5" style="stroke-width: 0.5; stroke: rgb(0, 0, 0); stroke-opacity: 1; fill: rgb(0, 0, 255); fill-opacity: 1;"/><text class="node-label" data-notex="1" x="0" y="0" text-anchor="start" transform="translate(33.25,5.5)" style="cursor: default; font-family: 'Open Sans', verdana, arial, sans-serif; font-size: 15px; fill: rgb(42, 63, 95); fill-opacity: 1; text-shadow: rgb(255, 255, 255) 1px 1px 1px, rgb(255, 255, 255) -1px -1px 1px, rgb(255, 255, 255) 1px -1px 1px, rgb(255, 255, 255) -1px 1px 1px; white-space: pre;"></text></g><g class="sankey-node" transform="translate(35.074,0.000)" style="opacity: 1;"><rect class="node-rect" width="30" height="237.16130145608756" style="stroke-width: 0.5; stroke: rgb(0, 0, 0); stroke-opacity: 1; fill: rgb(0, 0, 255); fill-opacity: 1;"/><text class="node-label" data-notex="1" x="0" y="0" text-anchor="start" transform="translate(33.25,123.83065072804378)" style="cursor: default; font-family: 'Open Sans', verdana, arial, sans-serif; font-size: 15px; fill: rgb(42, 63, 95); fill-opacity: 1; text-shadow: rgb(255, 255, 255) 1px 1px 1px, rgb(255, 255, 255) -1px -1px 1px, rgb(255, 255, 255) 1px -1px 1px, rgb(255, 255, 255) -1px 1px 1px; white-space: pre;">Computer and Mathematical Occupations</text></g><g class="sankey-node" transform="translate(810.000,0.000)" style="opacity: 1;"><rect class="node-rect" width="30" height="237.1613014560876" style="stroke-width: 0.5; stroke: rgb(0, 0, 0); stroke-opacity: 1; fill: rgb(0, 0, 255); fill-opacity: 1;"/><text class="node-label" data-notex="1" x="0" y="0" text-anchor="end" transform="translate(-3.25,123.8306507280438)" style="cursor: default; font-family: 'Open Sans', verdana, arial, sans-serif; font-size: 15px; fill: rgb(42, 63, 95); fill-opacity: 1; text-shadow: rgb(255, 255, 255) 1px 1px 1px, rgb(255, 255, 255) -1px -1px 1px, rgb(255, 255, 255) 1px -1px 1px, rgb(255, 255, 255) -1px 1px 1px; white-space: pre;">Mathematical Science Occupations</text></g></g></g><defs id="topdefs-a4f911"><g class="clips"/></defs><g class="layer-above"><g class="imagelayer"/><g class="shapelayer"/></g><g class="infolayer"><g class="g-gtitle"><text class="gtitle" x="50" y="50" text-anchor="start" dy="0em" style="opacity: 1; font-family: 'Open Sans', verdana, arial, sans-serif; font-size: 21px; fill: rgb(42, 63, 95); fill-opacity: 1; white-space: pre;">Career Pathway Trends (Sankey Diagram)</text></g><g class="first-render"/></g></svg>