<svg class="main-svg" xmlns="http://www.w3.org/2000/svg" xmlns:xlink="http://www.w3.org/1999/xlink" width="1000" height="600" style="" viewBox="0 0 1000 600"><rect x="0" y="0" width="1000" height="600" style="fill: rgb(255, 255, 255); fill-opacity: 1;"/><defs id="defs-658db1"><g class="clips"><clipPath id="clip658db1xyplot" class="plotclip"><rect width="662" height="381"/></clipPath><clipPath class="axesclip" id="clip658db1x"><rect x="88" y="0" width="662" height="600"/></clipPath><clipPath class="axesclip" id="clip658db1y"><rect x="0" y="100" width="1000" height="381"/></clipPath><clipPath class="axesclip" id="clip658db1xy"><rect x="88" y="100" width="662" height="381"/></clipPath></g><g class="gradients"/><g class="patterns"/></defs><g class="bglayer"/><g class="layer-below"><g class="imagelayer"/><g class="shapelayer"/></g><g class="cartesianlayer"><g class="subplot xy"><g class="layer-subplot"><g class="shapelayer"/><g class="imagelayer"/></g><g class="minor-gridlayer"><g class="x"/><g class="y"/></g><g class="gridlayer"><g class="x"><path class="xgrid crisp" transform="translate(223.01,0)" d="M0,100v381" style="stroke: rgb(235, 240, 248); stroke-opacity: 1; stroke-width: 1px;"/><path class="xgrid crisp" transform="translate(353.67,0)" d="M0,100v381" style="stroke: rgb(235, 240, 248); stroke-opacity: 1; stroke-width: 1px;"/><path class="xgrid crisp" transform="translate(488.68,0)" d="M0,100v381" style="stroke: rgb(235, 240, 248); stroke-opacity: 1; stroke-width: 1px;"/><path class="xgrid crisp" transform="translate(623.7,0)" d="M0,100v381" style="stroke: rgb(235, 240, 248); stroke-opacity: 1; stroke-width: 1px;"/></g><g class="y"><path class="ygrid crisp" transform="translate(0,406.38)" d="M88,0h662" style="stroke: rgb(211, 211, 211); stroke-opacity: 1; stroke-width: 1px;"/><path class="ygrid crisp" transform="translate(0,340.53999999999996)" d="M88,0h662" style="stroke: rgb(211, 211, 211); stroke-opacity: 1; stroke-width: 1px;"/><path class="ygrid crisp" transform="translate(0,274.7)" d="M88,0h662" style="stroke: rgb(211, 211, 211); stroke-opacity: 1; stroke-width: 1px;"/><path class="ygrid crisp" transform="translate(0,208.85)" d="M88,0h662" style="stroke: rgb(211, 211, 211); stroke-opacity: 1; stroke-width: 1px;"/><path class="ygrid crisp" transform="translate(0,143.01)" d="M88,0h662" style="stroke: rgb(211, 211, 211); stroke-opacity: 1; stroke-width: 1px;"/></g></g><g class="zerolinelayer"><path class="yzl zl crisp" transform="translate(0,472.23)" d="M88,0h662" style="stroke: rgb(235, 240, 248); stroke-opacity: 1; stroke-width: 2px;"/></g><g class="layer-between"><g class="shapelayer"/><g class="imagelayer"/></g><path class="xlines-below"/><path class="ylines-below"/><g class="overlines-below"/><g class="xaxislayer-below"/><g class="yaxislayer-below"/><g class="overaxes-below"/><g class="overplot"><g class="xy" transform="translate(88,100)" clip-path="url(#clip658db1xyplot)"><g class="scatterlayer mlayer"><g class="trace scatter trace92825b" style="stroke-miterlimit: 2; opacity: 1;"><g class="fills"/><g class="errorbars"/><g class="lines"><path class="js-line" d="M0,205.64Q3.14,228.44 4.36,228.36C6.62,228.21 6.82,148.76 8.71,148.69C9.97,148.65 11.86,168.1 13.07,183.59C15.46,214.08 11.13,316.87 17.42,319.88C18.68,320.48 20.53,318.98 21.78,316.59C27.5,305.64 22.85,202.76 26.13,202.35C27.34,202.2 29.27,217.29 30.49,217.17C32.67,216.95 31.84,169.2 34.84,168.44C36.04,168.14 37.5,173.67 39.2,175.03C40.5,176.07 42.34,177.4 43.55,176.67C46.99,174.58 46.69,139.09 47.91,139.14C50.2,139.24 49.65,273.3 52.26,273.46C53.47,273.53 55.35,256.42 56.62,245.15C58.47,228.66 57.27,185.17 60.97,183.92C62.18,183.51 64.12,186.23 65.33,188.85C67.97,194.59 68.34,220.16 69.68,220.13C71.29,220.1 72.82,174.99 74.04,175.03C76.2,175.1 76.53,316.23 78.39,316.26C79.65,316.28 81.39,274.26 82.75,250.75C84.33,223.38 81.84,164.86 87.11,161.86C88.35,161.15 90.24,162.3 91.46,164.16C95.66,170.58 94.6,222.46 95.82,222.43C98.05,222.37 98.72,26.55 100.17,26.55C101.62,26.55 102.57,170.84 104.53,221.12C105.77,252.98 107.28,275.37 108.88,299.14C110.23,319.17 111.88,354.46 113.24,354.45C114.82,354.43 116.14,304.9 117.59,280.05C119.04,255.09 117.31,213.18 121.95,204.99C123.18,202.82 125.05,204.28 126.3,202.02C132.19,191.35 129.17,85.15 130.66,85.15C132.08,85.15 133.18,161.96 135.01,190.83C136.28,210.92 137.7,226.94 139.37,241.86C140.68,253.57 142.4,273.16 143.72,273.13C145.38,273.09 146.78,242.12 148.08,223.09C149.8,197.9 150.57,135.24 152.43,135.19C153.69,135.15 155.45,160.75 156.79,175.36C158.4,192.82 158.86,219.84 161.14,232.97C162.36,239.96 164.28,241.79 165.5,248.77C167.78,261.85 168.48,306.07 169.86,306.06C171.4,306.05 172.86,260.28 174.21,234.29C175.81,203.41 174.1,134.19 178.57,132.89C179.79,132.53 181.71,139.43 182.92,139.14C185.45,138.52 185.89,105.87 187.28,105.89C188.81,105.91 190.42,128.71 191.63,146.71C193.98,181.63 193.36,268.99 195.99,301.12C197.19,315.8 199.12,333.11 200.34,333.05C202.61,332.94 202.84,250.97 204.7,220.79C205.96,200.35 207.65,169.42 209.05,169.43C210.56,169.44 211.29,228.86 213.41,229.02C214.64,229.11 216.54,218.04 217.76,209.59C219.97,194.25 220.87,144.06 222.12,144.08C224.05,144.12 223.98,266.99 226.47,301.12C227.68,317.71 229.6,338.04 230.83,337.99C232.9,337.91 233.54,264.28 235.18,232.97C236.51,207.61 237.74,183.16 239.54,164.16C240.82,150.65 242.59,142.74 243.89,129.59C245.61,112.23 246.93,69 248.25,69.02C249.9,69.04 251.27,129.03 252.61,163.5C254.23,205.14 254.56,270.71 256.96,301.45C258.17,316.96 260.1,336.39 261.32,336.34C263.6,336.24 263.24,240.11 265.67,212.89C266.88,199.34 267.65,183.13 270.03,182.6C271.24,182.33 273.15,185.31 274.38,189.18C279.39,204.87 277.03,318.87 278.74,318.89C280.04,318.91 281.67,243.5 283.09,243.5C284.57,243.5 285.22,306.05 287.45,325.15C288.67,335.59 290.6,349.27 291.8,349.18C294.44,348.99 294.5,266.53 296.16,231.98C297.48,204.56 298.48,158.34 300.51,158.24C301.75,158.18 303.39,176.44 304.87,185.23C306.29,193.65 306.64,208.9 309.22,209.92C310.43,210.39 312.34,206.05 313.58,206.63C318.83,209.1 315.92,279.64 317.93,304.41C319.17,319.67 321.05,341.33 322.29,341.28C324.33,341.2 324.84,267.86 326.64,239.88C327.92,220.06 329.47,205.23 331,189.18C332.39,174.65 334.03,147.68 335.36,147.7C337,147.73 337.53,196.41 339.71,211.57C340.93,220.09 342.84,222.91 344.07,231.32C346.18,245.78 346.9,271.92 348.42,290.91C349.81,308.32 351.52,340.98 352.78,340.95C354.64,340.91 355.5,264.94 357.13,232.31C358.46,205.53 359.71,159.27 361.49,159.22C362.77,159.18 363.93,187.23 365.84,197.08C367.09,203.54 368.11,212.23 370.2,212.89C371.43,213.28 373.32,208.73 374.55,209.27C379.57,211.48 376.76,280.27 378.91,302.76C380.13,315.55 382.03,332.78 383.26,332.72C385.35,332.62 385.78,269.35 387.62,245.81C388.89,229.64 389.51,205.43 391.97,204.99C393.18,204.78 395.12,214.11 396.33,213.87C399.54,213.23 395.97,146.58 400.68,143.75C401.91,143.01 403.76,143.8 405.04,145.73C412.6,157.13 405.34,287.74 409.39,312.97C410.61,320.56 412.54,327.6 413.75,327.45C417.05,327.03 412.76,226.3 418.11,214.2C419.35,211.39 421.24,212.63 422.46,209.92C426.9,200.08 425.33,129.59 426.82,129.59C428.24,129.59 429.15,202.25 431.17,202.35C432.41,202.41 434.32,175.29 435.53,175.36C437.93,175.5 436.17,265.46 439.88,282.35C441.09,287.86 443.04,293.09 444.24,292.89C447.37,292.36 447.01,239.77 448.59,216.18C449.95,195.96 451.49,159.88 452.95,159.88C454.4,159.88 455.2,215.03 457.3,215.19C458.53,215.28 460.44,204.75 461.66,196.76C463.85,182.41 464.77,135.82 466.01,135.85C467.99,135.89 466.11,267.75 470.37,289.92C471.59,296.27 473.52,301.95 474.72,301.78C477.44,301.39 477.84,263.77 479.08,237.25C481.07,194.72 480.78,71.12 483.43,70.99C484.64,70.93 486.48,92.35 487.79,105.23C489.48,121.8 489.74,149.75 492.14,162.19C493.35,168.46 495.29,169.13 496.5,176.01C499.74,194.5 499.05,251.98 500.86,280.71C502.13,300.86 503.88,332.08 505.21,332.06C506.84,332.04 508.16,281.16 509.57,254.37C511.08,225.66 508.82,167.69 513.92,165.15C515.16,164.53 516.93,166.81 518.28,168.11C519.87,169.65 521.4,171.3 522.63,174.04C524.7,178.66 525.78,185.04 526.99,194.45C529.6,214.83 529.13,269.13 531.34,292.23C532.56,305.01 533.22,316.05 535.7,321.86C536.91,324.69 538.81,327.85 540.05,327.45C545.25,325.77 542.86,241.84 544.41,202.68C545.79,167.83 547.01,103.95 548.76,103.92C550.05,103.9 551.4,157.53 553.12,157.58C554.42,157.62 556.27,127.22 557.47,127.29C560.14,127.44 559.91,237.92 561.83,277.41C563.08,303.2 564.9,341.3 566.18,341.28C567.96,341.25 567.17,239.08 570.54,217.83C571.75,210.24 573.11,202.93 574.89,202.68C576.17,202.5 578.04,209.89 579.25,209.59C582.53,208.77 581.75,149.43 583.61,149.35C584.87,149.3 586.76,164.37 587.96,177C590.53,203.94 589.72,277.69 592.32,304.41C593.52,316.78 595.46,331.47 596.67,331.4C599.09,331.25 599.42,254.98 601.03,221.78C602.37,194.11 600.97,154.95 605.38,145.73C606.6,143.17 608.52,143.84 609.74,141.78C611.9,138.15 612.88,123.89 614.09,124C616.42,124.2 617.02,168.45 618.45,191.16C619.92,214.52 621.05,242.24 622.8,262.27C624.09,276.98 625.92,300.5 627.16,300.46C629.15,300.39 630.17,237.69 631.51,201.69C633.12,158.31 634.19,58.17 635.87,58.15C637.18,58.14 638.72,145.07 640.22,145.07C641.63,145.07 642.93,68.06 644.58,68.03C645.9,68.01 647.71,96.45 648.93,117.74C651.12,155.84 651.23,277.36 653.29,277.41C654.52,277.44 655.88,236.45 657.64,220.46Q658.93,208.76 662,190.17" style="vector-effect: none; fill: none; stroke: rgb(99, 110, 250); stroke-opacity: 1; stroke-width: 2px; opacity: 1;"/></g><g class="points"/><g class="text"/></g><g class="trace scatter trace777076" style="stroke-miterlimit: 2; opacity: 1;"><g class="fills"/><g class="errorbars"/><g class="lines"><path class="js-line" d="M26.13,229.3L30.49,230.95L34.84,222.39L39.2,226.15L43.55,225.16L47.91,199.34L52.26,193.18L56.62,199.29L60.97,194.54L65.33,197.46L69.68,203.9L74.04,203.67L78.39,228.97L82.75,225.73L87.11,213.83L91.46,211.01L95.82,215.8L100.17,188.15L104.53,194.73L108.88,192.29L113.24,207.1L117.59,223.99L121.95,229.82L126.3,226.9L130.66,235.27L135.01,230.95L139.37,222.76L143.72,211.15L148.08,203.01L152.43,193.04L156.79,189.23L161.14,210.35L165.5,218.62L169.86,227.8L174.21,222.25L178.57,209.36L182.92,209.92L187.28,200L191.63,187.68L195.99,195.16L200.34,199.01L204.7,197.08L209.05,202.3L217.76,229.96L222.12,229.58L230.83,230.29L235.18,232.03L239.54,231.28L243.89,217.07L248.25,196.99L252.61,199.77L261.32,199.58L265.67,196.71L270.03,199.34L274.38,207.85L278.74,243.55L283.09,254.98L287.45,258.37L291.8,260.2L296.16,262.93L300.51,259.45L304.87,258.88L309.22,243.32L313.58,238.05L317.93,235.09L322.29,233.96L326.64,235.09L331,239.51L335.36,234.14L339.71,234.38L344.07,237.91L348.42,235.98L352.78,235.93L357.13,234.85L361.49,230.57L365.84,237.63L370.2,237.81L374.55,234.66L378.91,236.36L383.26,235.18L387.62,237.11L391.97,243.65L396.33,246.04L405.04,227.09L409.39,228.55L413.75,227.8L418.11,223.28L422.46,223.99L426.82,211.95L431.17,220.32L435.53,224.55L444.24,215.24L448.59,215.52L452.95,208.37L457.3,220.6L461.66,219.8L466.01,214.16L474.72,216.51L479.08,219.52L483.43,206.82L487.79,191.11L492.14,186.17L496.5,191.91L500.86,190.59L505.21,194.92L509.57,197.37L513.92,210.82L518.28,219.8L522.63,221.49L526.99,224.13L531.34,225.77L535.7,224.32L540.05,234.76L544.41,240.12L548.76,230.95L553.12,228.6L557.47,219L561.83,216.88L566.18,219.66L570.54,204L574.89,204L579.25,219.09L583.61,217.92L587.96,225.02L592.32,228.88L596.67,227.47L601.03,228.03L609.74,210.21L614.09,206.58L618.45,208.61L622.8,202.59L627.16,198.17L631.51,195.3L635.87,182.79L640.22,183.26L644.58,175.26L648.93,164.77L653.29,166.94L657.64,155.51L662,153.86" style="vector-effect: none; fill: none; stroke: rgb(255, 0, 0); stroke-opacity: 1; stroke-dasharray: 3px, 3px; stroke-width: 2px; opacity: 1;"/></g><g class="points"/><g class="text"/></g><g class="trace scatter trace27dc12" style="stroke-miterlimit: 2; opacity: 1;"><g class="fills"/><g class="errorbars"/><g class="lines"/><g class="points"><path class="point" transform="translate(100.17,26.55)" d="M6,0A6,6 0 1,1 0,-6A6,6 0 0,1 6,0Z" style="opacity: 1; stroke-width: 0px; fill: rgb(0, 128, 0); fill-opacity: 1;"/></g><g class="text"><g class="textpoint" transform="translate(0,-12.5)"><text x="100.17" y="26.55" text-anchor="middle" style="font-family: Arial; font-size: 16px; fill: rgb(42, 63, 95); fill-opacity: 1; white-space: pre;">Peak</text></g></g></g><g class="trace scatter tracefed28e" style="stroke-miterlimit: 2; opacity: 1;"><g class="fills"/><g class="errorbars"/><g class="lines"/><g class="points"><path class="point" transform="translate(113.24,354.45)" d="M6,0A6,6 0 1,1 0,-6A6,6 0 0,1 6,0Z" style="opacity: 1; stroke-width: 0px; fill: rgb(255, 0, 0); fill-opacity: 1;"/></g><g class="text"><g class="textpoint" transform="translate(0,20.5)"><text x="113.24" y="354.45" text-anchor="middle" style="font-family: Arial; font-size: 16px; fill: rgb(42, 63, 95); fill-opacity: 1; white-space: pre;">Lowest</text></g></g></g></g></g></g><path class="xlines-above crisp" d="M86,482H750" style="fill: none; stroke-width: 2px; stroke: rgb(0, 0, 0); stroke-opacity: 1;"/><path class="ylines-above crisp" d="M87,100V481" style="fill: none; stroke-width: 2px; stroke: rgb(0, 0, 0); stroke-opacity: 1;"/><g class="overlines-above"/><g class="xaxislayer-above"><g class="xtick"><text text-anchor="end" x="0" y="502.2" transform="translate(88,0) rotate(-45,0,494.2)" style="font-family: Arial; font-size: 16px; fill: rgb(42, 63, 95); fill-opacity: 1; white-space: pre; opacity: 1;">May 2024</text></g><g class="xtick"><text text-anchor="end" x="0" y="502.2" style="font-family: Arial; font-size: 16px; fill: rgb(42, 63, 95); fill-opacity: 1; white-space: pre; opacity: 1;" transform="translate(223.01,0) rotate(-45,0,494.2)">Jun 2024</text></g><g class="xtick"><text text-anchor="end" x="0" y="502.2" style="font-family: Arial; font-size: 16px; fill: rgb(42, 63, 95); fill-opacity: 1; white-space: pre; opacity: 1;" transform="translate(353.67,0) rotate(-45,0,494.2)">Jul 2024</text></g><g class="xtick"><text text-anchor="end" x="0" y="502.2" style="font-family: Arial; font-size: 16px; fill: rgb(42, 63, 95); fill-opacity: 1; white-space: pre; opacity: 1;" transform="translate(488.68,0) rotate(-45,0,494.2)">Aug 2024</text></g><g class="xtick"><text text-anchor="end" x="0" y="502.2" style="font-family: Arial; font-size: 16px; fill: rgb(42, 63, 95); fill-opacity: 1; white-space: pre; opacity: 1;" transform="translate(623.7,0) rotate(-45,0,494.2)">Sep 2024</text></g></g><g class="yaxislayer-above"><g class="ytick"><text text-anchor="end" x="82.8" y="5.6" transform="translate(0,472.23)" style="font-family: Arial; font-size: 16px; fill: rgb(42, 63, 95); fill-opacity: 1; white-space: pre; opacity: 1;">0</text></g><g class="ytick"><text text-anchor="end" x="82.8" y="5.6" style="font-family: Arial; font-size: 16px; fill: rgb(42, 63, 95); fill-opacity: 1; white-space: pre; opacity: 1;" transform="translate(0,406.38)">200</text></g><g class="ytick"><text text-anchor="end" x="82.8" y="5.6" style="font-family: Arial; font-size: 16px; fill: rgb(42, 63, 95); fill-opacity: 1; white-space: pre; opacity: 1;" transform="translate(0,340.53999999999996)">400</text></g><g class="ytick"><text text-anchor="end" x="82.8" y="5.6" style="font-family: Arial; font-size: 16px; fill: rgb(42, 63, 95); fill-opacity: 1; white-space: pre; opacity: 1;" transform="translate(0,274.7)">600</text></g><g class="ytick"><text text-anchor="end" x="82.8" y="5.6" style="font-family: Arial; font-size: 16px; fill: rgb(42, 63, 95); fill-opacity: 1; white-space: pre; opacity: 1;" transform="translate(0,208.85)">800</text></g><g class="ytick"><text text-anchor="end" x="82.8" y="5.6" style="font-family: Arial; font-size: 16px; fill: rgb(42, 63, 95); fill-opacity: 1; white-space: pre; opacity: 1;" transform="translate(0,143.01)">1000</text></g></g><g class="overaxes-above"/></g></g><g class="polarlayer"/><g class="smithlayer"/><g class="ternarylayer"/><g class="geolayer"/><g class="funnelarealayer"/><g class="pielayer"/><g class="iciclelayer"/><g class="treemaplayer"/><g class="sunburstlayer"/><g class="glimages"/><defs id="topdefs-658db1"><g class="clips"/><clipPath id="legend658db1"><rect width="225" height="82" x="0" y="0"/></clipPath></defs><g class="layer-above"><g class="imagelayer"/><g class="shapelayer"/></g><g class="infolayer"><g class="legend" pointer-events="all" transform="translate(763.24,100)"><rect class="bg" shape-rendering="crispEdges" width="225" height="82" x="0" y="0" style="stroke: rgb(68, 68, 68); stroke-opacity: 1; fill: rgb(255, 255, 255); fill-opacity: 1; stroke-width: 0px;"/><g class="scrollbox" transform="" clip-path="url(#legend658db1)"><g class="groups"><g class="traces" transform="translate(0,16.9)" style="opacity: 1;"><text class="legendtext" text-anchor="start" x="40" y="6.24" style="font-family: Arial; font-size: 16px; fill: rgb(42, 63, 95); fill-opacity: 1; white-space: pre;">7-Day Moving Average</text><g class="layers" style="opacity: 1;"><g class="legendfill"/><g class="legendlines"><path class="js-line" d="M5,0h30" style="fill: none; stroke: rgb(255, 0, 0); stroke-opacity: 1; stroke-dasharray: 3px, 3px; stroke-width: 2px;"/></g><g class="legendsymbols"><g class="legendpoints"/></g></g><rect class="legendtoggle" x="0" y="-11.9" width="220" height="23.8" style="fill: rgb(0, 0, 0); fill-opacity: 0;"/></g><g class="traces" transform="translate(0,40.7)" style="opacity: 1;"><text class="legendtext" text-anchor="start" x="40" y="6.24" style="font-family: Arial; font-size: 16px; fill: rgb(42, 63, 95); fill-opacity: 1; white-space: pre;">trace 2</text><g class="layers" style="opacity: 1;"><g class="legendfill"/><g class="legendlines"/><g class="legendsymbols"><g class="legendpoints"><path class="scatterpts" transform="translate(20,0)" d="M6,0A6,6 0 1,1 0,-6A6,6 0 0,1 6,0Z" style="opacity: 1; stroke-width: 0px; fill: rgb(0, 128, 0); fill-opacity: 1;"/></g></g></g><rect class="legendtoggle" x="0" y="-11.9" width="220" height="23.8" style="fill: rgb(0, 0, 0); fill-opacity: 0;"/></g><g class="traces" transform="translate(0,64.5)" style="opacity: 1;"><text class="legendtext" text-anchor="start" x="40" y="6.24" style="font-family: Arial; font-size: 16px; fill: rgb(42, 63, 95); fill-opacity: 1; white-space: pre;">trace 3</text><g class="layers" style="opacity: 1;"><g class="legendfill"/><g class="legendlines"/><g class="legendsymbols"><g class="legendpoints"><path class="scatterpts" transform="translate(20,0)" d="M6,0A6,6 0 1,1 0,-6A6,6 0 0,1 6,0Z" style="opacity: 1; stroke-width: 0px; fill: rgb(255, 0, 0); fill-opacity: 1;"/></g></g></g><rect class="legendtoggle" x="0" y="-11.9" width="220" height="23.8" style="fill: rgb(0, 0, 0); fill-opacity: 0;"/></g></g></g><rect class="scrollbar" rx="20" ry="3" width="0" height="0" x="0" y="0" style="fill: rgb(128, 139, 164); fill-opacity: 1;"/></g><g class="g-gtitle"><text class="gtitle" x="50" y="50" text-anchor="start" dy="0em" style="opacity: 1; font-family: Arial; font-size: 28px; fill: rgb(0, 0, 0); fill-opacity: 1; white-space: pre;">Job Posting Trends Over Time</text></g><g class="g-xtitle"><text class="xtitle" x="419" y="587.241796875" text-anchor="middle" style="opacity: 1; font-family: Arial; font-size: 22px; fill: rgb(0, 0, 0); fill-opacity: 1; white-space: pre;">Date Posted</text></g><g class="g-ytitle"><text class="ytitle" transform="rotate(-90,21.096874999999997,290.5)" x="21.096874999999997" y="290.5" text-anchor="middle" style="opacity: 1; font-family: Arial; font-size: 22px; fill: rgb(0, 0, 0); fill-opacity: 1; white-space: pre;">Job Postings</text></g></g></svg>